<?xml version="1.0" encoding="utf-8"?>
<!-- Generator: Adobe Illustrator 27.5.0, SVG Export Plug-In . SVG Version: 6.00 Build 0)  -->
<svg version="1.1" xmlns="http://www.w3.org/2000/svg" xmlns:xlink="http://www.w3.org/1999/xlink" x="0px" y="0px"
	 viewBox="0 0 750 500" style="enable-background:new 0 0 750 500;" xml:space="preserve">
<g id="BACKGROUND">
	<rect style="opacity:0.8;fill:#54DEFD;" width="750" height="500"/>
	<rect y="440.569" style="opacity:0.8;fill:#54DEFD;" width="750" height="59.431"/>
</g>
<g id="OBJECTS">
	<g>
		<polygon style="fill:#FF7E82;" points="113.449,81.042 112.379,108.038 105.263,117.523 135.164,153.487 147.613,117.151 
			134.966,109.421 135.362,94.403 		"/>
		<path style="fill:#FF7E82;" d="M134.58,41.516c12.615-0.279,20.545,6.471,21.516,21.515c0.971,15.045-3.559,37.531-13.103,40.443
			c-9.545,2.912-21.354,0-27.016-12.618C110.315,78.238,105.3,42.163,134.58,41.516z"/>
		<path style="fill:#004748;" d="M110.467,77.64c1.745,1.179,5.131-2.109,5.131-2.109l5.702-0.673c0,0,1.012-5.903,0.601-8.897
			c1.06,0.499,1.875,0.233,2.92-0.295c1.729-0.873,3.159-2.325,4.005-4.067c1.072-2.207,1.189-4.741,1.251-7.194
			c0.959,1.038,1.57,2.201,2.802,2.893c1.663,0.934,3.709,1.122,5.543,0.597c1.834-0.525,3.446-1.738,4.539-3.302
			c0.774,2.31,1.462,5.221,3.548,6.48c0.627,0.379,1.321,0.632,2.016,0.864c2.011,0.671,5.174,1.023,7.156,0.27
			c0.404,3.262,0.559,6.971,0.36,10.252c3.902,0.767,6.88-1.114,8.913-4.532s1.669-8.098-0.868-11.161
			c2.326-3.34,2.346-7.203,0.431-10.794s-5.761-6.023-9.812-6.418c0.079-3.784-2.184-7.233-5.486-9.083
			c-3.302-1.85-7.619-1.722-10.805,0.321c-0.53-1.803-1.852-3.164-3.567-3.933c-2.549-1.143-5.495-1.504-8.174-0.713
			c-2.679,0.791-5.035,2.804-5.965,5.438c-0.235-0.356-0.933-0.539-1.32-0.718c-2.751-1.272-6.139-1.053-8.703,0.564
			c-2.564,1.617-4.222,4.58-4.259,7.61c-3.099,0.896-5.743,3.823-6.724,6.896c-0.981,3.073-0.333,6.617,1.673,9.143
			c-2.504,1.606-3.947,4.555-3.868,7.529c0.08,2.974,1.806,5.851,4.393,7.321c-0.703,2.775,0.87,6.204,3.521,7.286
			C106.851,77.8,108.921,77.638,110.467,77.64z"/>
		<g>
			<path style="fill:#FF7E82;" d="M108.744,70.554c-0.362,1.213-0.4,2.544-0.326,3.848c0.125,2.226,0.598,4.523,1.784,6.294
				c1.185,1.771,3.202,2.884,4.973,2.276c1.447-0.497,2.493-2.038,2.966-3.744c0.473-1.706,0.451-3.571,0.328-5.388
				c-0.079-1.172-0.202-2.365-0.609-3.451c-0.573-1.529-1.716-2.758-3.045-3.274C112.408,66.18,109.578,67.761,108.744,70.554z"/>
			<path style="fill:#FF7E82;" d="M116.279,80.738c-0.484-0.397-0.931-0.862-1.328-1.381c-0.131-0.171-0.263-0.367-0.273-0.595
				c-0.014-0.297,0.18-0.533,0.359-0.729c0.594-0.65,1.188-1.3,1.781-1.95c-0.129-1.151-0.271-2.31-0.606-3.409
				c-0.335-1.099-0.882-2.145-1.681-2.832c-0.799-0.687-1.872-0.964-2.755-0.535c-0.852,0.414-1.408,1.397-1.755,2.415
				c0,0-0.912,3.879,1.218,6.692C113.368,81.228,116.279,80.738,116.279,80.738z"/>
			<g>
				<path style="fill:#004748;" d="M110.021,71.723c0.128-0.521,0.32-1.031,0.603-1.503c0.278-0.47,0.675-0.91,1.218-1.146
					c1.11-0.48,2.409,0.011,3.174,0.839c0.796,0.824,1.273,1.869,1.576,2.925c0.282,1.067,0.396,2.15,0.504,3.214l0.013,0.128
					l-0.084,0.092c-0.342,0.372-0.694,0.734-1.051,1.092c-0.335,0.356-0.753,0.73-1.019,1.07c-0.283,0.343,0.027,0.763,0.33,1.17
					c0.298,0.401,0.633,0.777,0.994,1.133c-0.42-0.285-0.804-0.625-1.156-0.997c-0.172-0.192-0.353-0.362-0.5-0.613
					c-0.161-0.247-0.142-0.636,0.017-0.882c0.324-0.481,0.653-0.798,0.979-1.205c0.325-0.388,0.654-0.771,0.993-1.145l-0.071,0.219
					c-0.133-1.058-0.273-2.109-0.563-3.106c-0.271-0.993-0.687-1.967-1.37-2.704c-0.66-0.713-1.683-1.207-2.625-0.879
					C111.05,69.773,110.439,70.758,110.021,71.723z"/>
			</g>
		</g>
		<path style="fill:#004748;" d="M119.562,94.01c0,0,4.857,7.142,9.64,9.066c4.84,1.948,5.894,1.436,5.894,1.436l-0.09,3.418
			c0,0-5.57-0.648-9.7-4.843C121.175,98.893,119.562,94.01,119.562,94.01z"/>
		<g>
			<path style="fill:#004748;" d="M143.983,66.898l0.092,4.327c0.037,1.435,0.072,2.875,0.15,4.297
				c0.073,1.421,0.215,2.829,0.524,4.187c0.321,1.353,0.815,2.656,1.596,3.796l0.234,0.341l-0.319,0.211
				c-0.802,0.53-1.677,0.938-2.582,1.226c-0.911,0.267-1.843,0.452-2.779,0.455c0.906-0.225,1.785-0.501,2.603-0.907
				c0.825-0.385,1.596-0.862,2.306-1.409l-0.085,0.552c-0.956-1.171-1.581-2.589-1.936-4.033c-0.373-1.447-0.482-2.927-0.523-4.384
				C143.224,72.647,143.452,69.749,143.983,66.898z"/>
		</g>
		<path style="fill:#004748;" d="M136.768,73.009c0,1.063-0.861,1.924-1.924,1.924c-1.063,0-1.924-0.862-1.924-1.924
			c0-1.063,0.861-1.924,1.924-1.924C135.907,71.085,136.768,71.947,136.768,73.009z"/>
		<path style="fill:#004748;" d="M152.194,73.59c0,1.063-0.861,1.924-1.924,1.924s-1.924-0.862-1.924-1.924s0.862-1.924,1.924-1.924
			S152.194,72.527,152.194,73.59z"/>
		<g>
			<path style="fill:#004748;" d="M136.544,88.127c0.938,0.99,1.969,1.854,3.033,2.62c1.068,0.747,2.241,1.368,3.438,1.503
				c1.165,0.191,2.305-0.477,3.306-1.289c0.995-0.84,1.911-1.833,2.762-2.896c-0.522,1.264-1.251,2.457-2.231,3.471
				c-0.487,0.509-1.054,0.963-1.716,1.305c-0.646,0.345-1.482,0.516-2.227,0.416c-1.507-0.187-2.785-0.964-3.824-1.883
				C138.035,90.452,137.161,89.353,136.544,88.127z"/>
		</g>
		<g>
			<path style="fill:#004748;" d="M127.996,69.175c0.432-1.018,1.105-1.937,1.893-2.778c0.807-0.822,1.774-1.516,2.858-2.023
				c1.064-0.504,2.24-1.125,3.48-0.926c1.209,0.169,2.415,0.673,3.22,1.784l-0.086,0.292c-1.23,0.515-2.152,0.747-3.063,0.965
				c-0.88,0.249-1.817-0.001-2.758,0.186c-0.921,0.183-1.848,0.498-2.742,0.942c-0.913,0.425-1.749,1.031-2.554,1.735
				L127.996,69.175z"/>
		</g>
		<g>
			<path style="fill:#004748;" d="M154.78,69.437c-0.613-0.602-1.267-1.077-1.992-1.392c-0.706-0.332-1.439-0.555-2.165-0.691
				c-0.749-0.141-1.526,0.102-2.229-0.212c-0.361-0.135-0.732-0.301-1.121-0.535c-0.39-0.224-0.795-0.492-1.232-0.912l-0.012-0.304
				c0.411-0.452,0.854-0.726,1.312-0.924c0.459-0.207,0.935-0.313,1.417-0.347c0.981-0.112,1.873,0.5,2.714,0.952
				c0.863,0.457,1.637,1.058,2.261,1.78c0.604,0.738,1.101,1.553,1.313,2.437L154.78,69.437z"/>
		</g>
		<g>
			<path style="fill:#AC3A31;" d="M192.192,320.64c-0.072,0.464-0.141,0.95,0.037,1.391c0.178,0.44,0.689,0.81,1.195,0.699
				c0.54-0.118,0.783-0.671,0.942-1.15c1.833-5.527,3.446-11.113,4.834-16.744c-0.75,4.176-1.467,8.356-2.15,12.541
				c-0.322,1.973-0.638,3.971-0.413,5.956c0.06,0.525,0.379,1.202,0.956,1.107c0.278-0.046,0.471-0.269,0.627-0.481
				c1.327-1.817,1.841-4.004,2.329-6.134c0.635-2.77,1.27-5.54,1.904-8.311c0.744-3.249,1.434-6.841-0.411-9.713
				c-0.741-1.154-1.999-2.157-3.48-2.201c-4.758-0.144-3.658,5.502-4.063,8.118C193.731,310.69,192.962,315.665,192.192,320.64z"/>
			<path style="fill:#FF7E82;" d="M202.117,287.506c0,0,3.668,16.296,4.081,21.62c0.413,5.325-0.138,17.667-2.752,18.699
				c-2.614,1.032-1.376-16.222-2.201-20.061s-3.715-9.04-3.715-9.04s-1.513,6.869-1.101,9.564c0.413,2.695,1.508,7.153-0.071,8.639
				c-1.58,1.486-6.12-7.678-6.532-12.755c-0.413-5.077-1.304-14.218-1.304-14.218L202.117,287.506z"/>
		</g>
		<polygon style="fill:#54DEFD;" points="152.718,129.017 140.174,112.604 133.934,129.95 109.422,111.979 110.087,249.964 
			166.199,245.471 		"/>
		<path style="fill:#004748;" d="M198.027,451.982l-31.828-206.511l-75.639,4.493l-8.238,204.857c0,0,5.535,4.556,16.346,6.012
			c10.811,1.455,17.355-2.267,17.355-2.267l19.284-161.046l26.024,161.093c0,0,8.856,2.377,21.33,0.506
			C195.135,457.248,198.027,451.982,198.027,451.982z"/>
		<path style="fill:#FFFBFA;" d="M109.422,111.979c0,0,15.03,46.619,17.016,92.764c1.985,46.144-2.147,110.539-2.147,110.539
			l-41.97-6.543v-12.741l-17.604-0.689c0,0,2.41-124.658,8.953-144.286S109.422,111.979,109.422,111.979z"/>
		<path style="fill:#FFFBFA;" d="M140.174,112.604c0,0,11.666,58.047,12.699,91.105c1.033,33.058,6.142,109.85,6.142,109.85
			l33.804-9.986l-1.722-12.741l17.562-4.477c0,0-20.317-109.506-25.482-134.3C178.011,127.262,140.174,112.604,140.174,112.604z"/>
		<g>
			<path style="fill:#004748;" d="M82.321,295.997l10.798-0.166l-0.166,0.162c0.155-10.272,0.419-20.54,0.701-30.808
				c0.331-10.266,0.631-20.535,1.076-30.798c0.473-10.262,0.873-20.528,1.649-30.78c0.081-1.282,0.218-2.563,0.328-3.844
				c0.094-1.28,0.266-2.565,0.447-3.849c0.428-2.546,1.033-5.047,1.677-7.537c1.314-4.972,2.8-9.894,4.49-14.745
				c-1.489,4.915-2.88,9.86-4.043,14.856c-0.565,2.499-1.152,5.001-1.525,7.527c-0.155,1.262-0.304,2.524-0.377,3.808
				c-0.088,1.279-0.203,2.553-0.263,3.836c-0.558,10.247-1.018,20.508-1.398,30.77l-2.429,61.576l-0.006,0.164l-0.16-0.003
				L82.321,295.997z"/>
		</g>
		<g>
			<path style="fill:#004748;" d="M170.236,143.738c0.096,6.352,0.268,12.701,0.503,19.047c0.215,6.346,0.479,12.691,0.928,19.02
				c0.208,3.166,0.515,6.321,0.858,9.466c0.387,3.131,0.965,6.252,1.532,9.375l3.527,18.722l7.077,37.447l3.496,18.732l3.409,18.75
				l-3.902-18.654l-3.776-18.679c-2.489-12.458-4.9-24.931-7.295-37.409l-3.437-18.748c-0.551-3.129-1.117-6.259-1.494-9.436
				c-0.344-3.169-0.587-6.344-0.755-9.519C170.196,169.153,170.121,156.442,170.236,143.738z"/>
		</g>
		<g>
			<path style="fill:#004748;" d="M117.39,141.954c-1.089,3.56-2.241,7.098-3.362,10.646l-0.062,0.196l-0.213-0.024l-13.769-1.545
				l0.441-0.617l6.658,13.457c2.221,4.485,4.372,9.004,6.562,13.505c2.197,4.497,4.33,9.025,6.47,13.55
				c2.151,4.519,4.246,9.066,6.323,13.621c-2.323-4.435-4.628-8.879-6.877-13.351c-2.261-4.466-4.527-8.928-6.731-13.422
				c-2.21-4.49-4.46-8.961-6.638-13.467l-6.542-13.514l-0.352-0.726l0.792,0.109l13.726,1.891l-0.274,0.172
				C114.824,148.941,116.076,145.437,117.39,141.954z"/>
		</g>
		<g>
			<path style="fill:#004748;" d="M145.507,141.954l3.921,4.863l3.89,4.886l-0.35-0.081l9.814-5.092l0.764-0.396l-0.148,0.855
				l-2.461,14.211c-0.814,4.738-1.713,9.461-2.565,14.192c-0.846,4.732-1.758,9.453-2.668,14.174
				c-0.896,4.723-1.852,9.436-2.83,14.145c0.706-4.757,1.433-9.511,2.221-14.253c0.774-4.745,1.545-9.491,2.383-14.224
				c0.831-4.735,1.616-9.478,2.486-14.206l2.59-14.188l0.615,0.459l-9.947,4.827l-0.214,0.104l-0.136-0.185l-3.697-5.034
				L145.507,141.954z"/>
		</g>
		<g>
			<path style="fill:#004748;" d="M105.263,114.941c-0.401,2.427-0.832,4.847-1.295,7.26c-0.478,2.41-0.914,4.829-1.426,7.232
				l-1.518,7.211c-0.503,2.404-1.077,4.793-1.612,7.191l-0.214-0.493c2.467,1.469,4.908,2.981,7.338,4.512
				c2.441,1.513,4.853,3.075,7.249,4.663c-2.544-1.339-5.073-2.703-7.572-4.117c-2.511-1.395-5.01-2.809-7.483-4.267l-0.285-0.168
				l0.07-0.326c0.515-2.402,0.992-4.812,1.538-7.207l1.631-7.187c0.539-2.397,1.152-4.777,1.724-7.166
				C103.996,119.693,104.615,117.314,105.263,114.941z"/>
		</g>
		<g>
			<path style="fill:#004748;" d="M147.613,115.996c2.765,3.546,5.407,7.177,8.042,10.814c2.623,3.644,5.178,7.337,7.718,11.039
				l0.197,0.286l-0.201,0.274c-1.668,2.276-3.355,4.538-5.07,6.781c-1.696,2.256-3.434,4.482-5.205,6.683
				c1.522-2.381,3.078-4.738,4.675-7.064c1.579-2.34,3.186-4.66,4.811-6.967l-0.005,0.56c-2.58-3.675-5.146-7.359-7.643-11.091
				C152.447,123.572,149.969,119.827,147.613,115.996z"/>
		</g>
		<polygon style="fill:#004748;" points="185.111,261.21 175.996,264.15 178.016,270.623 186.397,267.826 		"/>
		<polygon style="fill:#004748;" points="94.077,265.578 111.609,267.669 110.914,273.75 93.871,271.819 		"/>
		
			<line style="fill:none;stroke:#004748;stroke-width:1.0142;stroke-miterlimit:10;" x1="189.329" y1="282.871" x2="207.265" y2="278.851"/>
		
			<line style="fill:none;stroke:#004748;stroke-width:1.0142;stroke-miterlimit:10;" x1="93.313" y1="289.483" x2="64.876" y2="288.078"/>
		<g>
			<path style="fill:#54DEFD;" d="M133.972,307.958c0.229-2.867,0.475-5.732,0.777-8.589c0.305-2.857,0.567-5.72,0.923-8.571
				l1.01-8.559l1.132-8.544l0.024-0.183l0.145-0.114c1.096-0.859,2.161-1.799,3.192-2.755c1.021-0.97,1.999-1.988,2.871-3.088
				c0.856-1.105,1.62-2.296,2.245-3.56c0.612-1.265,1.122-2.607,1.287-4.022c-0.015,1.432-0.442,2.834-0.974,4.162
				c-0.536,1.334-1.238,2.604-2.085,3.776c-0.846,1.169-1.8,2.251-2.798,3.285c-1.002,1.035-2.058,1.998-3.193,2.906l0.17-0.297
				l-1.01,8.56l-1.132,8.545c-0.358,2.851-0.81,5.689-1.219,8.534C134.925,302.287,134.458,305.124,133.972,307.958z"/>
		</g>
		<g>
			<path style="fill:#004748;" d="M116.022,458.566v23.144H52.858c0,0-0.553-8.106,3.316-9.949
				c3.869-1.842,18.239-3.316,22.477-7.001c4.238-3.685,9.949-11.975,9.949-11.975L116.022,458.566z"/>
			
				<line style="fill:none;stroke:#54DEFD;stroke-width:1.0142;stroke-miterlimit:10;" x1="116.022" y1="478.025" x2="52.915" y2="478.025"/>
			<path style="fill:none;stroke:#54DEFD;stroke-width:1.0142;stroke-miterlimit:10;" d="M72.525,467.46
				c1.877,0.809,3.6,1.974,5.048,3.416"/>
			<path style="fill:none;stroke:#54DEFD;stroke-width:1.0142;stroke-miterlimit:10;" d="M76,466.049
				c1.464,0.957,2.929,1.915,4.393,2.872"/>
			<path style="fill:none;stroke:#54DEFD;stroke-width:1.0142;stroke-miterlimit:10;" d="M79.053,464.354
				c1.641,0.82,3.172,1.861,4.539,3.085"/>
		</g>
		<g>
			<path style="fill:#004748;" d="M166.629,458.566v23.144h63.164c0,0,0.553-8.106-3.316-9.949
				c-3.869-1.842-18.239-3.316-22.477-7.001c-4.237-3.685-9.949-11.975-9.949-11.975L166.629,458.566z"/>
			
				<line style="fill:none;stroke:#54DEFD;stroke-width:1.0142;stroke-miterlimit:10;" x1="166.629" y1="478.025" x2="229.736" y2="478.025"/>
			<path style="fill:none;stroke:#54DEFD;stroke-width:1.0142;stroke-miterlimit:10;" d="M210.125,467.46
				c-1.877,0.809-3.6,1.974-5.048,3.416"/>
			<path style="fill:none;stroke:#54DEFD;stroke-width:1.0142;stroke-miterlimit:10;" d="M206.651,466.049
				c-1.464,0.957-2.929,1.915-4.393,2.872"/>
			<path style="fill:none;stroke:#54DEFD;stroke-width:1.0142;stroke-miterlimit:10;" d="M203.597,464.354
				c-1.641,0.82-3.172,1.861-4.539,3.085"/>
		</g>
		<g>
			<path style="fill:#004748;" d="M82.321,454.821c0,0,8.033,6.023,18.95,6.349c10.917,0.326,14.75-2.605,14.75-2.605"/>
			<path style="fill:#54DEFD;" d="M82.321,454.821c1.266,0.763,2.566,1.455,3.906,2.055c1.33,0.619,2.68,1.189,4.067,1.653
				c2.762,0.949,5.61,1.63,8.498,1.947c2.878,0.315,5.835,0.293,8.742,0.097c1.457-0.105,2.91-0.288,4.337-0.603
				c1.428-0.298,2.852-0.698,4.15-1.405c-2.444,1.73-5.482,2.37-8.406,2.784c-2.964,0.384-5.943,0.437-8.934,0.134
				c-2.975-0.351-5.906-1.082-8.661-2.228C87.269,458.117,84.624,456.69,82.321,454.821z"/>
		</g>
		<g>
			<path style="fill:#004748;" d="M161.331,458.613c0,0,10.857,3.165,22.13,0.749c11.273-2.416,14.566-7.38,14.566-7.38"/>
			<path style="fill:#54DEFD;" d="M161.331,458.613c1.595,0.316,3.194,0.575,4.803,0.747c1.604,0.193,3.213,0.349,4.825,0.398
				c3.219,0.139,6.444,0.027,9.619-0.415c3.173-0.43,6.311-1.22,9.315-2.334c1.5-0.564,2.965-1.233,4.343-2.058
				c1.387-0.805,2.715-1.749,3.791-2.968c-1.897,2.692-4.872,4.417-7.839,5.748c-3.017,1.317-6.215,2.151-9.47,2.616
				c-3.256,0.428-6.556,0.514-9.811,0.186C167.653,460.225,164.42,459.645,161.331,458.613z"/>
		</g>
		<g>
			<path style="fill:#AC3A31;" d="M81.881,324.697c0.072,0.464,0.141,0.95-0.036,1.391c-0.178,0.44-0.69,0.81-1.196,0.699
				c-0.54-0.118-0.783-0.671-0.942-1.15c-1.833-5.527-3.446-11.113-4.834-16.744c0.75,4.176,1.467,8.356,2.151,12.541
				c0.322,1.973,0.638,3.971,0.413,5.956c-0.06,0.525-0.379,1.202-0.956,1.107c-0.278-0.046-0.471-0.269-0.627-0.482
				c-1.327-1.817-1.841-4.004-2.329-6.134c-0.635-2.77-1.27-5.54-1.904-8.31c-0.745-3.249-1.434-6.841,0.411-9.713
				c0.741-1.154,2-2.157,3.48-2.201c4.758-0.143,3.658,5.503,4.063,8.118C80.342,314.747,81.111,319.722,81.881,324.697z"/>
			<path style="fill:#FF7E82;" d="M71.081,295.558c0,0-2.793,12.301-3.206,17.626c-0.413,5.325,0.138,17.667,2.751,18.699
				c2.614,1.032,1.376-16.222,2.201-20.061c0.826-3.839,3.715-9.04,3.715-9.04s1.513,6.869,1.101,9.564
				c-0.413,2.695-1.508,7.153,0.071,8.639c1.58,1.486,6.12-7.678,6.532-12.755c0.413-5.077,1.112-12.233,1.112-12.233
				L71.081,295.558z"/>
		</g>
		<polygon style="fill:#49C6E5;" points="135.096,136.078 111.233,117.993 109.422,111.979 133.934,129.95 140.174,112.604 
			141.492,119.415 		"/>
		<g style="opacity:0.39;">
			<g>
				<path style="fill:#FFFBFA;" d="M123.664,40.53c0.837-2.388,3.197-4.204,5.8-4.409c2.604-0.197,5.252,1.206,6.526,3.495
					l-0.383-0.019c0.888-1.224,2.413-1.805,3.849-1.748c1.459,0.052,2.83,0.897,3.537,2.111c-0.829-1.137-2.194-1.804-3.542-1.8
					c-1.347,0.015-2.708,0.629-3.473,1.701l-0.203,0.285l-0.18-0.304c-1.233-2.084-3.676-3.413-6.102-3.282
					C127.065,36.691,124.738,38.252,123.664,40.53z"/>
			</g>
			<g>
				<path style="fill:#FFFBFA;" d="M142.793,48.879c1.634-1.073,3.825-1.292,5.705-0.572c1.869,0.74,3.384,2.367,3.916,4.322
					l-0.345-0.135c1.106-0.668,2.519-0.918,3.755-0.466c1.224,0.424,2.215,1.407,2.648,2.578c-0.579-1.105-1.601-1.927-2.749-2.265
					c-1.151-0.328-2.406-0.067-3.413,0.553l-0.255,0.157l-0.09-0.292c-0.552-1.78-1.896-3.324-3.63-4.049
					C146.61,47.968,144.541,48.029,142.793,48.879z"/>
			</g>
			<g>
				<path style="fill:#FFFBFA;" d="M108.161,57.22c-0.285-1.165-0.072-2.44,0.49-3.52c0.567-1.077,1.469-2.004,2.599-2.533
					c2.274-1.034,5.099-0.523,6.934,1.144l-0.39,0.141c0.129-0.831,0.461-1.638,0.972-2.308c0.509-0.675,1.193-1.19,1.929-1.565
					c1.486-0.756,3.299-0.773,4.758-0.073c-1.522-0.546-3.237-0.391-4.6,0.37c-1.371,0.761-2.397,2.103-2.592,3.647l-0.054,0.43
					l-0.336-0.288c-1.729-1.486-4.325-2.035-6.444-1.103C109.329,52.462,107.849,54.834,108.161,57.22z"/>
			</g>
		</g>
		<g>
			<g>
				<path style="fill:#004748;" d="M105.263,114.941c-0.522,1.887-0.859,3.736-0.968,5.59c-0.436,1.779-0.619,3.628-0.688,5.486
					c-0.139,3.738,0.25,7.46,0.99,11.158c0.733,3.694,1.732,7.374,2.744,11.044l1.57,5.497c0.241,1.917,0.499,3.833,0.656,5.779
					c-0.933-1.715-1.764-3.461-2.596-5.211l-1.585-5.521c-1.018-3.694-2.025-7.394-2.78-11.197
					c-0.761-3.791-1.174-7.718-1.027-11.621c0.058-1.958,0.297-3.925,0.706-5.872C103.015,118.202,103.987,116.427,105.263,114.941z
					"/>
			</g>
			<path style="fill:#004748;" d="M117.377,156.107c1.872,4.313-0.106,9.327-4.419,11.199c-4.313,1.872-9.327-0.106-11.199-4.419
				c-1.872-4.313,0.106-9.327,4.419-11.199C110.49,149.815,115.505,151.794,117.377,156.107z"/>
			<path style="fill:#00BD9D;" d="M114.231,157.472c1.118,2.576-0.063,5.57-2.639,6.688c-2.576,1.118-5.57-0.063-6.688-2.639
				c-1.118-2.576,0.063-5.57,2.639-6.688C110.119,153.715,113.113,154.896,114.231,157.472z"/>
		</g>
		<g>
			<g>
				<path style="fill:#004748;" d="M151.327,117.687c1.015,0.257,1.953,0.609,2.896,0.986c0.731,0.637,1.49,1.254,2.21,1.93
					c1.442,1.34,2.818,2.855,3.814,4.685c0.492,0.907,0.87,1.92,1.113,2.911c0.238,0.96,0.426,1.926,0.579,2.895
					c0.147,0.969,0.285,1.939,0.345,2.916c-0.215,1-0.455,1.989-0.843,2.952l-1.15-2.775c-0.111-0.928-0.204-1.857-0.356-2.776
					c-0.145-0.92-0.323-1.833-0.545-2.729c-0.215-0.865-0.511-1.654-0.928-2.431c-0.836-1.54-2.055-2.906-3.409-4.162
					c-0.685-0.622-1.38-1.248-2.132-1.818C152.379,119.443,151.815,118.614,151.327,117.687z"/>
			</g>
			
				<rect x="159.281" y="132.223" transform="matrix(0.9978 -0.0667 0.0667 0.9978 -8.6138 11.0562)" style="fill:#00BD9D;" width="4.076" height="4.688"/>
			<path style="fill:none;stroke:#004748;stroke-width:2.0285;stroke-miterlimit:10;" d="M160.08,170.747l-0.775-0.338
				c-2.605-1.137-4.388-3.594-4.65-6.425c-0.808-8.726-1.475-26.769,6.787-27.021c7.925-0.242,10.689,16.591,11.607,25.802
				c0.343,3.438-1.635,6.683-4.837,7.982l0,0"/>
			<path style="fill:#00BD9D;" d="M160.319,169.244l2.506,0.977c0.819,0.32,1.225,1.243,0.905,2.062l0,0
				c-0.32,0.82-1.243,1.225-2.062,0.905l-2.506-0.977c-0.82-0.319-1.225-1.243-0.905-2.062l0,0
				C158.576,169.329,159.5,168.924,160.319,169.244z"/>
			<path style="fill:#00BD9D;" d="M168.54,168.723l-2.41,1.193c-0.788,0.39-1.111,1.346-0.721,2.134l0,0
				c0.39,0.788,1.345,1.111,2.134,0.721l2.411-1.193c0.788-0.39,1.111-1.346,0.721-2.134l0,0
				C170.283,168.655,169.328,168.333,168.54,168.723z"/>
		</g>
	</g>
	<g>
		<g>
			<path style="fill:#00BD9D;" d="M324.749,45.733c0.817,0.849,1.07,2.296,1.887,3.144c1.02-1.149,2.178-1.948,3.481-2.726
				c-0.563-1.483-1.24-2.921-2.018-4.303C326.895,43.055,325.813,44.397,324.749,45.733z"/>
			<path style="fill:#004748;" d="M358.224,108.155c-2.128-1.173-3.807-3.066-4.963-5.203c3.138,2.994,8.46,3.242,12.371,1.367
				c-3.944-0.783-7.146-3.724-9.423-7.038c-4.873-7.092-6.303-15.961-6.959-24.541c-0.655-8.58-0.685-17.328-3.235-25.546
				c-1.215-3.915-3.441-8.058-7.383-9.184c-2.709-0.773-5.676,0.112-8.002,1.702c-0.916,0.626-1.75,1.354-2.532,2.138
				c0.778,1.382,1.454,2.82,2.018,4.303c0.1-0.059,0.198-0.119,0.299-0.178c0.555-0.326,1.163-0.625,1.807-0.604
				c0.999,0.031,1.811,0.816,2.37,1.645c1.751,2.595,1.998,5.907,1.908,9.037c-0.392,13.652-6.091,26.911-5.193,40.539
				c0.26,3.944,1.105,7.922,3.101,11.333c3.094,5.287,8.988,8.821,15.109,9.059c6.121,0.239,12.272-2.825,15.769-7.855
				C362.968,109.849,360.352,109.327,358.224,108.155z"/>
		</g>
		<g style="opacity:0.31;">
			<g>
				<path style="fill:#FFFFFF;" d="M329.623,44.157c1.249-0.928,2.621-1.756,4.163-2.115c1.538-0.368,3.194-0.118,4.612,0.577
					c1.424,0.696,2.639,1.776,3.583,3.041c0.94,1.274,1.611,2.724,2.093,4.222c0.954,3.012,1.216,6.173,1.331,9.299
					c0.093,3.136-0.065,6.269-0.261,9.39c-0.442,6.227-1.055,12.492-0.207,18.687c0.419,3.085,1.235,6.125,2.557,8.948
					c1.309,2.818,3.155,5.43,5.597,7.397c-2.485-1.911-4.403-4.496-5.785-7.307c-1.36-2.833-2.203-5.895-2.65-8.998
					c-0.901-6.233-0.334-12.534,0.063-18.755c0.22-3.116,0.401-6.235,0.332-9.352c-0.09-3.108-0.329-6.25-1.246-9.222
					c-0.463-1.478-1.113-2.908-2.022-4.161c-0.912-1.245-2.096-2.306-3.477-3.002c-1.369-0.708-2.974-0.99-4.498-0.662
					C332.281,42.463,330.892,43.257,329.623,44.157z"/>
			</g>
			<g>
				<path style="fill:#FFFFFF;" d="M329.573,46.526c1.315-1.397,3.523-1.691,5.269-0.96c1.774,0.732,3.111,2.26,3.953,3.948
					c0.865,1.701,1.26,3.601,1.392,5.487c0.136,1.893,0.014,3.791-0.191,5.667c-0.865,7.497-2.483,14.903-2.658,22.431
					c-0.111,3.751,0.129,7.529,0.985,11.184c0.858,3.643,2.354,7.169,4.613,10.166c2.234,2.989,5.295,5.456,8.908,6.526
					c3.554,1.124,7.622,0.935,10.904-0.984c-3.245,1.98-7.342,2.256-10.964,1.184c-3.671-1.055-6.794-3.545-9.073-6.555
					c-2.306-3.02-3.841-6.577-4.733-10.255c-0.888-3.689-1.156-7.5-1.064-11.278c0.225-7.58,1.895-14.983,2.803-22.451
					c0.216-1.866,0.349-3.748,0.226-5.619c-0.117-1.866-0.5-3.734-1.331-5.412c-0.796-1.672-2.08-3.195-3.808-3.945
					C333.105,44.914,330.914,45.154,329.573,46.526z"/>
			</g>
		</g>
		<path style="fill:#FF7E82;" d="M294.011,42.247c-8.394,3.088-14.362,11.223-16.111,19.994c-0.618,3.1-0.768,6.275-0.772,9.436
			c-0.005,4.439,1.312,8.939,2.722,13.148c1.688,5.04,3.887,9.444,7.585,13.262c1.789,1.847,3.729,3.598,6.02,4.765
			c2.291,1.167,4.983,1.709,7.469,1.051c5.191-1.373,10.041-3.746,13.55-7.81c2.227-2.58,3.9-5.592,5.343-8.68
			c3.091-6.617,5.212-13.826,4.997-21.126c-0.215-7.3-2.964-14.706-8.384-19.6C311.01,41.793,300.865,39.725,294.011,42.247z"/>
		<g>
			<path style="fill:#004748;" d="M294.838,67.362c0.204,1.703,0.195,3.422,0.171,5.126c-0.015,1.708-0.071,3.414-0.165,5.117
				c-0.101,1.703-0.207,3.405-0.357,5.103c-0.139,1.699-0.301,3.396-0.512,5.09l-0.5-0.401c1.479-0.374,2.964-0.73,4.481-0.984
				c-1.394,0.648-2.82,1.195-4.252,1.723l-0.523,0.193l0.022-0.594c0.064-1.703,0.167-3.404,0.286-5.103l0.385-5.095
				c0.143-1.697,0.31-3.392,0.487-5.086C294.504,70.755,294.742,69.067,294.838,67.362z"/>
		</g>
		<path style="fill:#004748;" d="M303.243,73.543c0,1.075,0.871,1.946,1.946,1.946c1.075,0,1.946-0.871,1.946-1.946
			s-0.871-1.946-1.946-1.946C304.114,71.597,303.243,72.468,303.243,73.543z"/>
		<circle style="fill:#004748;" cx="287.539" cy="73.104" r="1.946"/>
		<g>
			<path style="fill:#004748;" d="M302.444,88.83c-0.624,1.24-1.508,2.351-2.569,3.282c-1.051,0.93-2.343,1.715-3.867,1.905
				c-0.753,0.101-1.599-0.071-2.253-0.421c-0.67-0.346-1.243-0.805-1.736-1.32c-0.992-1.024-1.729-2.231-2.256-3.51
				c0.862,1.076,1.788,2.08,2.794,2.929c1.013,0.822,2.165,1.498,3.343,1.304c1.211-0.137,2.396-0.765,3.476-1.52
				C300.453,90.705,301.496,89.831,302.444,88.83z"/>
		</g>
		<g>
			<path style="fill:#004748;" d="M311.906,69.815c-0.751-0.765-1.569-1.431-2.471-1.931c-0.89-0.513-1.833-0.895-2.792-1.135
				c-0.973-0.241-1.96-0.138-2.911-0.312c-0.971-0.158-1.952-0.265-3.124-0.513l-0.058-0.197c0.886-0.851,2.058-1.233,3.23-1.341
				c1.193-0.124,2.342,0.354,3.397,0.811c1.069,0.458,2.04,1.096,2.87,1.864c0.818,0.78,1.526,1.657,2.026,2.634L311.906,69.815z"/>
		</g>
		<g>
			<path style="fill:#004748;" d="M281.054,68.777c0.388-0.953,1.084-1.78,1.881-2.474c0.811-0.684,1.754-1.214,2.751-1.595
				c0.986-0.381,2.014-0.82,3.08-0.75c1.056,0.057,2.098,0.285,3.061,0.907l-0.012,0.205c-1.019,0.508-1.967,0.724-2.891,0.933
				c-0.913,0.223-1.856,0.102-2.776,0.279c-0.906,0.177-1.801,0.457-2.644,0.874c-0.853,0.404-1.626,0.982-2.274,1.727
				L281.054,68.777z"/>
		</g>
		<path style="fill:#004748;" d="M323.945,79.666c-5.235-2.377-8.017-8.232-9.049-13.887c-0.701-3.839-0.794-7.789-0.275-11.657
			c-2.975,2.818-6.861,4.887-10.495,6.781c-2.899,1.511-6.101,2.721-9.358,2.452c-0.333-0.982,0.427-1.969,1.133-2.729
			c0.96-1.034,1.919-2.067,2.879-3.101c-5.803,3.406-12.736,5.075-19.459,5.343c-0.503,0.02-1.049,0.018-1.453-0.283
			c-0.638,3.984-0.791,8.306-0.11,12.283c0,0-13.585-12.698-3.316-26.39c10.269-13.692,32.589-18.669,47.722-7.31
			C340.487,54.922,323.945,79.666,323.945,79.666z"/>
		<g>
			<path style="fill:#FF7E82;" d="M328.141,74.115c0.084,1.221-0.162,2.487-0.506,3.704c-0.587,2.077-1.516,4.149-3.002,5.576
				c-1.486,1.427-3.612,2.06-5.145,1.117c-1.252-0.77-1.908-2.444-1.992-4.154c-0.084-1.711,0.331-3.467,0.829-5.16
				c0.321-1.091,0.689-2.192,1.3-3.134c0.861-1.326,2.192-2.249,3.547-2.461C325.628,69.22,327.949,71.303,328.141,74.115z"/>
			<path style="fill:#FF7E82;" d="M318.925,82.172c0.538-0.274,1.055-0.621,1.537-1.029c0.159-0.135,0.324-0.292,0.382-0.505
				c0.075-0.278-0.056-0.541-0.183-0.764c-0.42-0.738-0.839-1.475-1.259-2.213c0.364-1.06,0.741-2.127,1.288-3.095
				c0.546-0.968,1.28-1.843,2.175-2.327c0.894-0.483,1.959-0.522,2.697,0.068c0.712,0.569,1.026,1.612,1.137,2.646
				c0,0,0.037,3.855-2.555,6.07C321.551,83.239,318.925,82.172,318.925,82.172z"/>
			<g>
				<path style="fill:#004748;" d="M326.697,74.954c-0.19-0.997-0.553-2.057-1.357-2.581c-0.819-0.506-1.887-0.246-2.654,0.294
					c-0.795,0.557-1.387,1.391-1.849,2.271c-0.481,0.88-0.834,1.841-1.181,2.811l-0.021-0.221c0.24,0.424,0.467,0.856,0.69,1.29
					c0.22,0.452,0.463,0.821,0.664,1.344c0.096,0.266,0.031,0.635-0.172,0.833c-0.191,0.206-0.396,0.329-0.598,0.474
					c-0.409,0.278-0.84,0.52-1.295,0.702c0.414-0.261,0.807-0.547,1.171-0.864c0.369-0.321,0.749-0.654,0.558-1.036
					c-0.176-0.376-0.491-0.818-0.73-1.224c-0.259-0.413-0.514-0.829-0.756-1.252l-0.059-0.104l0.039-0.117
					c0.324-0.981,0.659-1.977,1.147-2.924c0.505-0.933,1.169-1.819,2.087-2.436c0.888-0.626,2.218-0.829,3.166-0.143
					c0.463,0.337,0.743,0.837,0.904,1.338C326.615,73.914,326.687,74.436,326.697,74.954z"/>
			</g>
		</g>
		<g style="opacity:0.3;">
			<g>
				<path style="fill:#FFFFFF;" d="M323.373,69.742c-1.29-1.996-2.291-4.186-2.977-6.474c-0.693-2.287-1.06-4.668-1.159-7.056
					c-0.064-2.389,0.144-4.79,0.679-7.119c0.53-2.329,1.381-4.582,2.534-6.66c-1.012,2.149-1.745,4.416-2.213,6.729
					c-0.463,2.314-0.67,4.679-0.574,7.035c0.062,2.357,0.43,4.703,1.047,6.981C321.334,65.454,322.218,67.666,323.373,69.742z"/>
			</g>
			<g>
				<path style="fill:#FFFFFF;" d="M326.028,44.983c-0.5,1.575-0.771,3.207-0.838,4.84c-0.061,1.633,0.069,3.274,0.434,4.865
					c0.331,1.598,0.894,3.145,1.631,4.604c0.741,1.457,1.666,2.828,2.775,4.053c-1.222-1.113-2.259-2.44-3.065-3.899
					c-0.812-1.456-1.386-3.041-1.757-4.667c-0.338-1.633-0.477-3.313-0.343-4.975C324.989,48.142,325.38,46.505,326.028,44.983z"/>
			</g>
			<g>
				<path style="fill:#FFFFFF;" d="M319,39.883c-3.282,2.616-6.831,4.903-10.574,6.821c-3.74,1.925-7.672,3.471-11.706,4.669
					c-4.046,1.157-8.198,1.948-12.387,2.32l-1.571,0.133l-1.576,0.067c-1.049,0.062-2.101,0.056-3.151,0.051
					c-2.081-0.017-4.26-0.073-6.183-0.966c1.951,0.827,4.103,0.809,6.182,0.758c1.047-0.019,2.094-0.029,3.138-0.111l1.567-0.096
					l1.561-0.162c4.161-0.438,8.287-1.221,12.3-2.403c4.02-1.158,7.925-2.699,11.677-4.552
					C312.028,44.554,315.624,42.374,319,39.883z"/>
			</g>
			<g>
				<path style="fill:#FFFFFF;" d="M309.057,35.667c-2.234,1.39-4.579,2.608-7.007,3.638c-2.426,1.036-4.935,1.872-7.483,2.558
					c-2.556,0.652-5.154,1.152-7.776,1.44c-2.621,0.293-5.262,0.381-7.891,0.264c2.63-0.041,5.252-0.242,7.851-0.59
					c2.598-0.353,5.177-0.846,7.708-1.526c2.54-0.647,5.029-1.483,7.466-2.448C304.361,38.031,306.745,36.921,309.057,35.667z"/>
			</g>
		</g>
		<g>
			<path style="fill:#FF7E82;" d="M318.66,114.795c-3.064-1.898-5.187-3.527-5.412-4.506c-0.915-3.964-1.829-14.941-1.829-14.941
				l-17.829,3.049c0,0,1.047,9.304-3.826,13.342c-1.022,0.847-2.868,1.961-5.139,3.189c4.137,9.54,9.832,18.404,16.806,26.116
				C308.477,133.142,314.352,124.382,318.66,114.795z"/>
			<path style="fill:#1594EA;" d="M344.147,125.84c0,0-16.136-5.253-25.487-11.046c-4.309,9.587-10.183,18.347-17.23,26.25
				c-6.975-7.713-12.669-16.576-16.806-26.116c-8.556,4.629-23.213,10.912-23.213,10.912l-5.489,130.812
				c0,0,18.105,6.838,47.321,6.838c29.215,0,45.376-7.448,45.376-7.448l-1.489-58.67L344.147,125.84z"/>
		</g>
		<g>
			<path style="fill:#FF7E82;" d="M268.711,178.676l-10.283,18.696l0.624-14.969c-1.902,0.614-3.852,1.055-5.844,1.225
				c-2.244,0.192-4.544,0.02-6.721-0.553c-0.262,17.09,0.034,33.438,1.893,40.591c2.893,11.127,8.3,14.913,8.3,14.913
				s11.706-24.346,14.304-32.464c2.598-8.118,6.657-21.756,6.657-21.756L268.711,178.676z"/>
			<path style="fill:#1594EA;" d="M253.209,183.629c1.992-0.17,3.942-0.611,5.844-1.225l2.358-56.563
				c0,0-13.253,5.696-14.143,29.508c-0.318,8.505-0.635,18.231-0.78,27.728C248.665,183.648,250.965,183.821,253.209,183.629z"/>
		</g>
		<g>
			<path style="fill:#FF7E82;" d="M336.847,178.676l10.283,18.696l-0.624-14.969c1.902,0.614,3.852,1.055,5.844,1.225
				c2.244,0.192,4.544,0.02,6.721-0.553c0.262,17.09-0.034,33.438-1.893,40.591c-2.893,11.127-8.3,14.913-8.3,14.913
				s-11.706-24.346-14.304-32.464c-2.598-8.118-6.657-21.756-6.657-21.756L336.847,178.676z"/>
			<path style="fill:#1594EA;" d="M352.35,183.629c-1.992-0.17-3.942-0.611-5.844-1.225l-2.358-56.563
				c0,0,13.253,5.696,14.143,29.508c0.318,8.505,0.635,18.231,0.78,27.728C356.894,183.648,354.593,183.821,352.35,183.629z"/>
		</g>
		<g>
			<path style="fill:#004748;" d="M303.323,458.306v23.404h55.67c0,0,0.866-9.075-3.354-10.061
				c-35.181-8.218-36.532-19.19-36.532-19.19L303.323,458.306z"/>
		</g>
		<path style="fill:#1694EA;" d="M262.125,254.503c0.417,1.332,19.53,200.895,19.53,200.895s13.057,10.582,24.306,7.153
			c11.249-3.43,18.771-10.09,18.771-10.09l18.803-199.733L262.125,254.503z"/>
		<path style="fill:#004748;" d="M310.8,481.71h-33.718c0,0,2.308-24.005,18.59-24.005C311.954,457.705,310.8,481.71,310.8,481.71z"
			/>
		
			<line style="fill:none;stroke:#54DEFD;stroke-width:1.0256;stroke-miterlimit:10;" x1="277.692" y1="477.983" x2="358.935" y2="477.983"/>
		<g>
			<path style="fill:#004748;" d="M255.922,256.652c3.683,1.368,7.475,2.402,11.3,3.249c3.823,0.859,7.681,1.559,11.568,2.041
				c7.767,0.993,15.612,1.357,23.433,1.059c7.833-0.221,15.649-0.954,23.411-2.032c3.88-0.548,7.748-1.203,11.584-2.014
				c3.84-0.792,7.658-1.714,11.4-2.912c-7.372,2.752-15.109,4.414-22.866,5.707c-7.774,1.245-15.626,1.974-23.494,2.276
				c-7.877,0.214-15.783-0.138-23.577-1.305C270.908,261.511,263.165,259.734,255.922,256.652z"/>
		</g>
		
			<line style="fill:none;stroke:#004748;stroke-width:1.0256;stroke-miterlimit:10;" x1="305.961" y1="263.613" x2="305.961" y2="462.55"/>
		<g>
			<path style="fill:#54DEFD;" d="M305.165,461.63c2.34,2.66,3.981,5.926,4.971,9.347c0.966,3.428,1.296,7.069,0.709,10.563
				c-0.228-3.524-0.734-6.954-1.695-10.281C308.213,467.924,306.833,464.743,305.165,461.63z"/>
		</g>
		<g>
			<path style="fill:#004748;" d="M258.755,189.142c-0.042-2.144-0.018-4.285-0.029-6.428l0.078-6.424
				c0.063-4.283,0.218-8.562,0.322-12.843c0.187-4.278,0.33-8.558,0.559-12.835l0.364-6.414c0.159-2.137,0.282-4.275,0.472-6.411
				c0.043,2.144,0.019,4.285,0.03,6.428l-0.078,6.424c-0.065,4.282-0.217,8.562-0.324,12.843c-0.19,4.278-0.329,8.558-0.561,12.834
				l-0.363,6.415C259.067,184.868,258.944,187.007,258.755,189.142z"/>
		</g>
		<g>
			<path style="fill:#004748;" d="M346.866,189.142c-0.145-2.138-0.224-4.277-0.338-6.416l-0.231-6.417
				c-0.143-4.279-0.194-8.558-0.296-12.837c-0.019-4.28-0.082-8.56-0.059-12.84l0.055-6.421c0.056-2.141,0.076-4.281,0.163-6.423
				c0.146,2.138,0.225,4.277,0.34,6.416l0.231,6.417c0.141,4.279,0.195,8.558,0.294,12.837c0.016,4.28,0.083,8.56,0.057,12.84
				l-0.054,6.421C346.973,184.861,346.952,187.001,346.866,189.142z"/>
		</g>
		<path style="fill:none;stroke:#004748;stroke-width:1.0256;stroke-miterlimit:10;" d="M280.634,116.995
			c0,0,4.299,12.141,8.635,17.862c5.005,6.605,12.372,13.331,12.372,13.331s8.069-7.875,13.14-15.597
			c5.202-7.92,8.18-15.39,8.18-15.39"/>
		<rect x="276.434" y="134.201" style="fill:#004748;" width="51.282" height="72.137"/>
		<path style="fill:#FFFBFA;" d="M310.286,128.853h-16.423c-2.953,0-5.347,2.394-5.347,5.347l0,0h27.118l0,0
			C315.634,131.247,313.239,128.853,310.286,128.853z"/>
		<path style="fill:#FF7E82;" d="M279.133,181.166c0,0,4.544-7.365,4.039-9.551c2.268-0.495,7.324,0.815,9.634,1.039
			c0.265,0.026,0.567,0.025,0.755-0.164c0.307-0.308,0.081-0.828-0.173-1.181c-2.705-3.747-7.714-5.86-12.245-4.949
			c2.212-0.447,4.47-0.896,6.711-0.63c1.568,0.186,3.127,0.721,4.69,0.501c0.157-0.022,0.328-0.06,0.427-0.184
			c0.104-0.13,0.097-0.318,0.057-0.479c-0.207-0.84-1.08-1.314-1.881-1.642c-4.314-1.764-8.952-2.215-13.528-1.326
			c4.039-2.317,8.901-3.165,13.486-2.352c0.466,0.083,0.953,0.181,1.406,0.043c0.453-0.138,0.846-0.609,0.714-1.064
			c-0.055-0.191-0.191-0.348-0.33-0.491c-1.375-1.418-3.338-2.111-5.278-2.483c-4.893-0.938-10.196-0.248-14.523,2.221
			c3.611-3.077,8.288-4.878,13.03-5.017c1.302-0.038,2.619,0.044,3.898-0.205c0.148-0.029,0.312-0.073,0.39-0.202
			c0.14-0.23-0.091-0.505-0.306-0.668c-2.846-2.163-6.645-2.907-10.169-2.308c-3.525,0.599-8.453,3.079-10.333,6.12v9.894
			l-0.895,12.586l6.867,12.553L279.133,181.166z"/>
		<path style="fill:#FF7E82;" d="M325.866,181.166c0,0-4.544-7.365-4.038-9.551c-2.268-0.495-7.324,0.815-9.634,1.039
			c-0.265,0.026-0.567,0.025-0.755-0.164c-0.307-0.308-0.082-0.828,0.173-1.181c2.705-3.747,7.715-5.86,12.245-4.949
			c-2.212-0.447-4.47-0.896-6.711-0.63c-1.568,0.186-3.127,0.721-4.691,0.501c-0.157-0.022-0.327-0.06-0.427-0.184
			c-0.104-0.13-0.097-0.318-0.057-0.479c0.207-0.84,1.08-1.314,1.881-1.642c4.314-1.764,8.952-2.215,13.528-1.326
			c-4.039-2.317-8.901-3.165-13.486-2.352c-0.466,0.083-0.953,0.181-1.406,0.043c-0.453-0.138-0.846-0.609-0.714-1.064
			c0.055-0.191,0.191-0.348,0.33-0.491c1.375-1.418,3.338-2.111,5.278-2.483c4.892-0.938,10.196-0.248,14.523,2.221
			c-3.611-3.077-8.288-4.878-13.03-5.017c-1.303-0.038-2.619,0.044-3.898-0.205c-0.148-0.029-0.312-0.073-0.39-0.202
			c-0.14-0.23,0.091-0.505,0.306-0.668c2.846-2.163,6.645-2.907,10.169-2.308c3.524,0.599,8.453,3.079,10.333,6.12v9.894
			l1.455,12.586l-7.68,9.856L325.866,181.166z"/>
		<path style="fill:#004748;" d="M293.455,102.852c0,0,3.273,1.639,8.816,0.751c4.038-0.647,7.76-3.762,7.76-3.762
			s-3,5.684-8.669,7.049c-5.669,1.366-8.617,0.162-8.617,0.162L293.455,102.852z"/>
		<g>
			<path style="fill:#004748;" d="M259.226,196.265c-1.23,2.797-3.174,5.177-4.846,7.619c-1.694,2.436-3.191,4.976-3.922,7.926
				c-0.042-1.521,0.294-3.063,0.869-4.487c0.563-1.436,1.349-2.766,2.21-4.023C255.294,200.798,257.322,198.617,259.226,196.265z"/>
		</g>
		<g>
			<path style="fill:#004748;" d="M346.241,196.089c1.2,1.15,2.349,2.339,3.448,3.573c1.109,1.226,2.172,2.508,3.13,3.883
				c0.943,1.381,1.779,2.866,2.337,4.463c0.574,1.585,0.853,3.294,0.713,4.953c-0.536-3.287-2.047-6.171-3.894-8.834
				c-0.912-1.344-1.923-2.633-2.902-3.959C348.079,198.85,347.134,197.49,346.241,196.089z"/>
		</g>
	</g>
	<g>
		<path style="fill:#FF7E82;" d="M432.299,168.032C432.05,168.78,419.58,270.28,419.58,270.28l11.222,1.496l19.951-91.026
			L432.299,168.032z"/>
		<g>
			<path style="fill:#004748;" d="M451.209,458.205v23.505h-64.15c0,0-0.561-8.233,3.368-10.104
				c3.929-1.871,18.524-3.368,22.828-7.11c4.303-3.742,10.104-12.162,10.104-12.162L451.209,458.205z"/>
			
				<line style="fill:none;stroke:#54DEFD;stroke-width:1.0301;stroke-miterlimit:10;" x1="451.209" y1="477.967" x2="387.117" y2="477.967"/>
			<path style="fill:none;stroke:#54DEFD;stroke-width:1.0301;stroke-miterlimit:10;" d="M407.034,467.238
				c1.906,0.821,3.656,2.005,5.127,3.47"/>
			<path style="fill:none;stroke:#54DEFD;stroke-width:1.0301;stroke-miterlimit:10;" d="M410.562,465.805
				c1.487,0.972,2.974,1.945,4.462,2.917"/>
			<path style="fill:none;stroke:#54DEFD;stroke-width:1.0301;stroke-miterlimit:10;" d="M413.664,464.083
				c1.667,0.833,3.221,1.89,4.609,3.133"/>
		</g>
		<path style="fill:#FF7E82;" d="M474.345,39.798c-12.812-0.283-20.865,6.572-21.851,21.851
			c-0.986,15.279,3.615,38.116,13.308,41.074c9.693,2.957,21.687,0,27.437-12.815S504.082,40.455,474.345,39.798z"/>
		<g>
			<path style="fill:#004748;" d="M465.826,66.606c-0.411,1.542-0.869,3.082-1.335,4.59c-0.434,1.52-0.78,3.059-1.061,4.606
				c-0.279,1.548-0.478,3.107-0.59,4.674c-0.121,1.571-0.132,3.13-0.104,4.723l-0.409-0.421l3.909,0.423
				c0.652,0.063,1.301,0.17,1.952,0.253c0.65,0.086,1.301,0.177,1.949,0.286c-0.658,0.022-1.314,0.026-1.97,0.024
				c-0.656-0.005-1.313,0.016-1.968-0.009l-3.93-0.101l-0.381-0.01l-0.028-0.412c-0.109-1.588-0.153-3.219-0.035-4.826
				c0.103-1.611,0.328-3.215,0.676-4.79c0.331-1.579,0.829-3.118,1.4-4.62C464.479,69.496,465.152,68.059,465.826,66.606z"/>
		</g>
		<path style="fill:#004748;" d="M472.122,71.783c0,1.079,0.875,1.954,1.954,1.954c1.079,0,1.954-0.875,1.954-1.954
			c0-1.079-0.875-1.954-1.954-1.954C472.997,69.829,472.122,70.703,472.122,71.783z"/>
		<path style="fill:#004748;" d="M456.456,72.372c0,1.079,0.875,1.954,1.954,1.954c1.079,0,1.954-0.875,1.954-1.954
			c0-1.079-0.875-1.954-1.954-1.954C457.331,70.418,456.456,71.293,456.456,72.372z"/>
		<path style="fill:#004748;" d="M459.614,88.102c0,0,2.674,4.793,5.763,4.793c3.089,0,6.151-3.496,6.973-4.729
			c0,0-4.319,2.023-7.18,1.737C462.31,89.617,459.614,88.102,459.614,88.102z"/>
		<g>
			<path style="fill:#004748;" d="M480.781,68.069c-0.816-0.718-1.679-1.317-2.594-1.762c-0.908-0.451-1.849-0.771-2.785-0.957
				c-0.956-0.189-1.908,0.064-2.801-0.188c-0.925-0.222-1.862-0.457-3.111-0.981l-0.087-0.297c0.818-1.129,2.042-1.641,3.27-1.812
				c1.259-0.202,2.454,0.428,3.534,0.94c1.101,0.515,2.083,1.22,2.902,2.055c0.812,0.84,1.483,1.79,1.922,2.822L480.781,68.069z"/>
		</g>
		<g>
			<path style="fill:#004748;" d="M453.559,68.005c0.216-0.895,0.707-1.739,1.333-2.475c0.634-0.733,1.42-1.344,2.297-1.808
				c0.855-0.459,1.76-1.081,2.757-0.967c0.489,0.035,0.972,0.142,1.439,0.352c0.466,0.2,0.916,0.479,1.333,0.938l-0.012,0.309
				c-0.444,0.426-0.856,0.698-1.252,0.926c-0.395,0.238-0.771,0.406-1.138,0.544c-0.714,0.32-1.503,0.072-2.264,0.215
				c-0.738,0.138-1.482,0.364-2.199,0.702c-0.723,0.333-1.402,0.8-2.023,1.414L453.559,68.005z"/>
		</g>
		<path style="fill:#004748;" d="M500.679,71.012c2.655-4.251,4.642-8.999,5.151-13.985c0.51-4.986-0.551-10.225-3.493-14.282
			c-3.173-4.375-8.266-7.055-13.521-8.317s-10.723-1.241-16.126-1.135c-4.046,0.08-8.099,0.204-12.114,0.711
			c-2.357,0.298-4.712,0.731-6.936,1.566c-4.948,1.857-9.095,5.754-11.257,10.576c-1.246,2.779-1.847,5.914-1.265,8.903
			c0.582,2.989,2.451,5.795,5.195,7.114c-0.588-2.948-0.468-6.061,0.479-8.914c-0.117,4.023,2.291,8.187,5.609,10.465
			c0.049-1.839,0.354-3.671,0.903-5.427c3.678,0.536,7.503,0.5,11.04-0.642c3.708-1.197,7.137-3.282,10.974-3.958
			c4.338-0.764,8.78,0.346,12.961,1.732c0.427,2.879-0.479,5.831-0.134,8.722c0.524,4.384,4.174,8.401,8.58,8.682
			C498.345,72.927,499.818,72.389,500.679,71.012z"/>
		<g>
			<path style="fill:#FF7E82;" d="M500.565,70.415c0.354,1.158,0.393,2.429,0.325,3.673c-0.118,2.125-0.573,4.316-1.723,6.004
				c-1.149,1.688-3.107,2.747-4.831,2.163c-1.408-0.477-2.428-1.95-2.891-3.579c-0.463-1.63-0.445-3.409-0.329-5.144
				c0.074-1.119,0.192-2.257,0.586-3.292c0.555-1.459,1.663-2.63,2.954-3.12C496.995,66.233,499.749,67.748,500.565,70.415z"/>
			<path style="fill:#FF7E82;" d="M493.259,80.121c0.47-0.378,0.904-0.821,1.288-1.315c0.127-0.163,0.255-0.35,0.265-0.567
				c0.013-0.283-0.176-0.509-0.351-0.697c-0.579-0.622-1.157-1.243-1.736-1.865c0.123-1.098,0.259-2.204,0.582-3.252
				c0.324-1.048,0.854-2.046,1.629-2.7c0.775-0.654,1.818-0.916,2.678-0.505c0.829,0.397,1.371,1.336,1.711,2.308
				c0,0,0.894,3.704-1.171,6.385C496.09,80.594,493.259,80.121,493.259,80.121z"/>
			<g>
				<path style="fill:#004748;" d="M499.326,71.528c-0.409-0.925-1.006-1.861-1.904-2.192c-0.906-0.316-1.895,0.14-2.54,0.812
					c-0.668,0.695-1.077,1.627-1.342,2.578c-0.283,0.956-0.419,1.964-0.546,2.981l-0.07-0.213c0.33,0.357,0.65,0.723,0.966,1.093
					c0.318,0.388,0.636,0.692,0.953,1.149c0.157,0.233,0.182,0.612,0.025,0.85c-0.144,0.242-0.319,0.404-0.486,0.587
					c-0.342,0.355-0.714,0.679-1.121,0.949c0.351-0.339,0.676-0.698,0.966-1.081c0.296-0.39,0.595-0.791,0.316-1.117
					c-0.262-0.324-0.666-0.681-0.992-1.02c-0.346-0.341-0.689-0.687-1.021-1.041l-0.083-0.089l0.013-0.125
					c0.103-1.023,0.214-2.063,0.49-3.088c0.297-1.014,0.767-2.016,1.546-2.795c0.752-0.783,2.001-1.226,3.062-0.767
					c0.521,0.224,0.907,0.642,1.178,1.092C499.011,70.54,499.2,71.028,499.326,71.528z"/>
			</g>
		</g>
		<polygon style="fill:#FF7E82;" points="495.853,81.986 496.982,107.603 506.321,118.021 475.954,154.547 463.311,117.643 
			476.155,109.793 475.754,94.54 		"/>
		<path style="fill:#00BD9D;" d="M470.137,113.471l4.865,26.762l25.061-29.194c0,0,21.168,13.121,26.992,20.109
			c5.824,6.989,17.238,35.642,17.238,35.642l-19.102,8.852l12.322,284.295c0,0-11.29,5.74-27.85,4.147
			c-16.559-1.593-26.344-6.482-26.344-6.482l-5.645-175.382l-13.549,175.382c0,0-12.043,6.383-28.602,3.942
			s-22.581-11.849-22.581-11.849l30.484-226.561v-43.28l-19.194-7.527c0,0,9.409-33.495,13.548-41.022
			C441.921,123.777,470.137,113.471,470.137,113.471z"/>
		<path style="fill:#004748;" d="M488.959,481.71h41.138c0,0-0.755-24.108-20.621-24.108S488.959,481.71,488.959,481.71z"/>
		
			<line style="fill:none;stroke:#54DEFD;stroke-width:1.0301;stroke-miterlimit:10;" x1="529.672" y1="477.967" x2="489.367" y2="477.967"/>
		<path style="fill:none;stroke:#54DEFD;stroke-width:1.0301;stroke-miterlimit:10;" d="M515.166,466.766
			c-3.953-0.704-8.074-0.449-11.91,0.735"/>
		<path style="fill:none;stroke:#54DEFD;stroke-width:1.0301;stroke-miterlimit:10;" d="M514.735,463.836
			c-3.824-0.65-7.813-0.304-11.468,0.995"/>
		<g>
			<path style="fill:#AC3A31;" d="M429.179,303.698c0.073,0.471,0.143,0.965-0.037,1.412c-0.181,0.447-0.7,0.822-1.214,0.71
				c-0.548-0.12-0.796-0.681-0.957-1.168c-1.862-5.613-3.5-11.286-4.91-17.005c0.762,4.241,1.49,8.486,2.184,12.736
				c0.327,2.004,0.648,4.033,0.419,6.049c-0.06,0.534-0.385,1.221-0.971,1.125c-0.283-0.047-0.479-0.273-0.637-0.489
				c-1.348-1.845-1.87-4.067-2.365-6.23c-0.645-2.813-1.29-5.627-1.934-8.44c-0.756-3.3-1.457-6.948,0.417-9.865
				c0.753-1.172,2.031-2.19,3.534-2.236c4.833-0.146,3.716,5.588,4.126,8.244C427.616,293.594,428.397,298.646,429.179,303.698z"/>
			<path style="fill:#FF7E82;" d="M419.58,270.28c0,0-4.207,16.318-4.626,21.726c-0.419,5.408,0.14,17.943,2.794,18.991
				c2.655,1.048,1.397-16.475,2.236-20.374c0.838-3.899,3.773-9.181,3.773-9.181s1.537,6.976,1.118,9.713
				c-0.419,2.737-1.532,7.265,0.072,8.774c1.604,1.509,6.215-7.797,6.634-12.954c0.419-5.156-0.779-15.199-0.779-15.199
				L419.58,270.28z"/>
		</g>
		<path style="fill:#004748;" d="M475.991,103.553c0,0,4.059-0.312,8.825-4.854c4.002-3.813,4.843-5.834,4.843-5.834
			s-1.137,4.735-5.311,9.19c-4.173,4.455-8.237,6.087-8.237,6.087L475.991,103.553z"/>
		<polygon style="fill:#004748;" points="470.137,113.471 475.001,140.233 500.062,111.039 503.661,113.327 472.393,149.083 
			465.982,115.072 		"/>
		<g>
			<path style="fill:#004748;" d="M443.542,184.12c-0.149-2.07-0.214-4.143-0.296-6.217c-0.042-2.074-0.056-4.149-0.057-6.225
				c0.016-4.151,0.213-8.299,0.446-12.444c0.316-4.139,0.675-8.277,1.206-12.393c0.276-2.057,0.567-4.112,0.882-6.162
				c0.356-2.045,0.695-4.091,1.118-6.123l-0.618,6.188c-0.213,2.06-0.415,4.121-0.595,6.183c-0.366,4.123-0.732,8.245-0.967,12.376
				c-0.318,4.126-0.498,8.26-0.684,12.395c-0.095,2.068-0.167,4.137-0.23,6.207L443.542,184.12z"/>
		</g>
		<g>
			<path style="fill:#004748;" d="M518.674,184.918c-0.6-1.457-1.137-2.934-1.708-4.401l-1.605-4.435
				c-1.069-2.957-2.061-5.939-3.053-8.921c-0.969-2.99-1.935-5.98-2.826-8.996l-1.333-4.524c-0.408-1.52-0.851-3.029-1.229-4.558
				c0.601,1.457,1.138,2.934,1.709,4.401l1.606,4.435c1.068,2.957,2.061,5.939,3.051,8.922c0.967,2.99,1.934,5.981,2.824,8.996
				l1.333,4.524C517.853,181.88,518.295,183.389,518.674,184.918z"/>
		</g>
		<path style="fill:none;stroke:#004748;stroke-width:1.0301;stroke-miterlimit:10;" d="M440.384,245.738
			c0,0,13.137,2.984,38.233,4.317c25.096,1.333,49.612-4.317,49.612-4.317"/>
		<g>
			<path style="fill:#FFFBFA;" d="M546.857,262.772l-55.983,18.394c-1.563,0.513-3.246-0.337-3.759-1.9l-13.47-40.998l58.813-19.323
				c1.563-0.514,3.246,0.337,3.759,1.9l12.54,38.168C549.27,260.576,548.42,262.259,546.857,262.772z"/>
			<path style="fill:#FFFBFA;" d="M485.277,231.362l3.002,2.098l-14.635,4.808l-0.202-0.617c-0.655-1.995,0.43-4.143,2.425-4.798
				l6.046-1.986C483.05,230.493,484.296,230.677,485.277,231.362z"/>
		</g>
		<g>
			<polygon style="fill:#FF7E82;" points="517.09,179.254 538.605,169.425 544.292,203.33 519.085,264.045 506.321,258.871 
				523.824,203.33 			"/>
			<path style="fill:#FF7E82;" d="M506.321,258.871l-13.154,24.941c-0.445,0.844-0.143,1.888,0.683,2.365l1.761,1.016
				c0.545,0.314,1.216,0.317,1.763,0.006l1.702-0.966c0.682-0.387,1.537-0.281,2.104,0.262l1.321,1.266
				c0.497,0.477,1.226,0.622,1.868,0.374l1.628-0.63c0.768-0.297,1.64-0.027,2.105,0.653l0.018,0.026
				c0.496,0.724,1.447,0.978,2.237,0.595l1.395-0.674c0.523-0.253,1.138-0.234,1.644,0.052l0,0c1.093,0.617,2.463-0.065,2.63-1.309
				l3.061-22.802L506.321,258.871z"/>
		</g>
		<g>
			<path style="fill:#004748;" d="M464.628,451.092c-4.158,1.804-8.569,3.012-13.055,3.77c-4.49,0.75-9.102,0.892-13.651,0.28
				c-2.256-0.382-4.495-0.88-6.662-1.609c-2.177-0.69-4.3-1.55-6.329-2.589c-4.065-2.05-7.883-4.627-11.106-7.816
				c1.745,1.441,3.588,2.748,5.515,3.913c1.908,1.193,3.886,2.271,5.934,3.189c4.071,1.876,8.378,3.256,12.8,3.894
				c2.205,0.328,4.439,0.477,6.678,0.454c2.238-0.044,4.477-0.21,6.705-0.497c2.228-0.285,4.446-0.686,6.641-1.195
				C460.302,452.405,462.477,451.797,464.628,451.092z"/>
		</g>
		<g>
			<path style="fill:#004748;" d="M537.183,452.333c-4.323,1.702-8.881,2.788-13.482,3.498c-4.605,0.732-9.29,0.915-13.955,0.737
				c-4.664-0.26-9.297-1.018-13.798-2.233c-4.482-1.265-8.887-2.896-12.903-5.24c2.099,0.988,4.256,1.832,6.452,2.553
				c2.186,0.745,4.404,1.392,6.649,1.92c4.488,1.042,9.052,1.797,13.654,1.973c4.595,0.26,9.216,0.066,13.795-0.491
				c2.293-0.256,4.576-0.622,6.841-1.084C532.708,453.537,534.958,452.989,537.183,452.333z"/>
		</g>
		<g>
			<path style="fill:#004748;" d="M465.246,270.28c1.12,0.908,2.194,1.862,3.288,2.796l3.21,2.877
				c2.128,1.931,4.216,3.904,6.282,5.899l0.151,0.146l0.005,0.206c0.068,2.55,0.133,5.099,0.116,7.652
				c0.005,2.552-0.016,5.104-0.133,7.66c-0.281-2.543-0.466-5.089-0.625-7.635c-0.181-2.546-0.28-5.095-0.376-7.643l0.156,0.351
				c-2.076-1.985-4.131-3.992-6.146-6.041l-3.004-3.092C467.194,272.397,466.198,271.362,465.246,270.28z"/>
		</g>
		<g>
			
				<rect x="478.722" y="156.566" transform="matrix(-1 -1.224647e-16 1.224647e-16 -1 982.9314 327.5264)" style="fill:#FFFBFA;stroke:#8BD7D2;stroke-width:1.8879;stroke-miterlimit:10;" width="25.487" height="14.395"/>
			<path style="fill:#004748;" d="M485.69,156.566h12.368c0.844,0,1.529-0.684,1.529-1.529l0,0c0-0.844-0.684-1.529-1.529-1.529
				H485.69c-0.844,0-1.529,0.684-1.529,1.529l0,0C484.162,155.881,484.846,156.566,485.69,156.566z"/>
			<path style="fill:#8BD7D2;" d="M481.772,160.533h19.444c0.42,0,0.76-0.34,0.76-0.76l0,0c0-0.42-0.341-0.76-0.76-0.76h-19.444
				c-0.42,0-0.76,0.34-0.76,0.76l0,0C481.012,160.192,481.352,160.533,481.772,160.533z"/>
			<path style="fill:#8BD7D2;" d="M481.772,163.756h19.444c0.42,0,0.76-0.34,0.76-0.76l0,0c0-0.42-0.341-0.76-0.76-0.76h-19.444
				c-0.42,0-0.76,0.34-0.76,0.76l0,0C481.012,163.415,481.352,163.756,481.772,163.756z"/>
			<path style="fill:#8BD7D2;" d="M481.772,166.979h19.444c0.42,0,0.76-0.34,0.76-0.76l0,0c0-0.42-0.341-0.76-0.76-0.76h-19.444
				c-0.42,0-0.76,0.34-0.76,0.76l0,0C481.012,166.638,481.352,166.979,481.772,166.979z"/>
		</g>
		<g style="opacity:0.47;">
			<path style="fill:#FFFBFA;" d="M496.362,45.533c-4.487-2.088-8.931-4.421-13.775-5.442c-2.405-0.519-4.88-0.764-7.34-0.997
				c-2.463-0.211-4.937-0.29-7.398-0.152c-4.905,0.244-9.844,1.518-13.939,4.272c-2.041,1.367-3.804,3.152-5.144,5.218
				c-1.348,2.057-2.26,4.43-2.487,6.906c0.145-2.481,0.981-4.907,2.279-7.037c1.311-2.127,3.077-3.973,5.131-5.407
				c4.128-2.887,9.17-4.172,14.131-4.462c2.494-0.141,4.991-0.034,7.469,0.19c2.473,0.257,4.952,0.493,7.389,1.068
				c2.434,0.566,4.777,1.453,7.037,2.485C491.972,43.222,494.154,44.403,496.362,45.533z"/>
		</g>
		<g style="opacity:0.47;">
			<path style="fill:#FFFBFA;" d="M453.01,59.202c0.19-0.867,0.475-1.713,0.849-2.524c0.392-0.801,0.866-1.563,1.405-2.278
				c1.113-1.406,2.49-2.59,4.012-3.541c3.064-1.917,6.691-2.682,10.236-2.916c3.573-0.181,7.127,0.091,10.659,0.473
				c3.528,0.409,7.06,1.125,10.326,2.537c-3.334-1.234-6.852-1.805-10.367-2.144c-3.522-0.299-7.07-0.572-10.586-0.353
				c-3.504,0.19-7.034,0.943-10.063,2.74c-1.512,0.889-2.888,2.014-4.021,3.361c-0.561,0.676-1.063,1.402-1.488,2.177
				C453.564,57.518,453.241,58.345,453.01,59.202z"/>
		</g>
	</g>
	<g>
		<g>
			<path style="fill:#FF7E82;" d="M662.455,379.501c0.024,1.324-11.748,100.645-11.748,100.645l-25.823,0l-13.456-102.962
				l30.274-64.889L662.455,379.501z"/>
			<g>
				<path style="fill:#FF7E82;" d="M599.978,475.006l22.889-10.291l15.641,0l0.173,9.518c-6.914,2.185-14.086,3.626-21.362,3.67
					C611.451,477.938,605.508,477.028,599.978,475.006z"/>
				<path style="fill:#004748;" d="M593.513,477.913l6.465-2.907c5.529,2.022,11.473,2.932,17.341,2.896
					c7.275-0.044,14.448-1.485,21.362-3.67l0.136,7.477l-44.427,0C592.248,481.709,591.573,478.785,593.513,477.913z"/>
			</g>
			<g>
				<path style="fill:#FF7E82;" d="M633.308,475.068c1.971-3.726,6.006-7.633,14.281-7.633c7.746,0,11.879,3.424,14.087,6.917
					C652.603,477.31,642.62,477.549,633.308,475.068z"/>
				<path style="fill:#004748;" d="M661.676,474.353c2.3,3.64,2.508,7.357,2.508,7.357l-32.754,0c0,0,0.082-3.246,1.878-6.641
					C642.62,477.549,652.603,477.31,661.676,474.353z"/>
			</g>
			<g>
				<path style="fill:#004748;" d="M654.246,468.479c-1.054-0.135-2.099-0.264-3.151-0.317c-1.047-0.083-2.095-0.121-3.137-0.098
					c-2.078,0.054-4.157,0.253-6.072,0.941c-1.93,0.677-3.752,1.677-5.333,3.002c-0.802,0.648-1.541,1.384-2.203,2.189
					c-0.692,0.784-1.288,1.65-1.815,2.571c0.669-2.026,1.93-3.85,3.486-5.352c1.537-1.539,3.481-2.648,5.525-3.387
					c2.085-0.718,4.292-0.892,6.429-0.756C650.118,467.41,652.234,467.784,654.246,468.479z"/>
			</g>
			
				<line style="fill:none;stroke:#004748;stroke-width:1.0348;stroke-miterlimit:10;" x1="637.815" y1="470.5" x2="638.867" y2="319.606"/>
		</g>
		<path style="fill:#004748;" d="M635.445,31.632c14.224,0.314,30.154,13.002,30.397,31.91c0.243,18.908-6.465,42.008-32.228,42.008
			c-25.763,0-38.893-12.036-38.893-12.036s7.538-1.337,8.146-13.252C603.474,68.348,602.372,30.903,635.445,31.632z"/>
		<path style="fill:#FF7E82;" d="M625.575,38.329c-8.469,3.116-14.49,11.323-16.255,20.173c-0.624,3.128-0.775,6.331-0.778,9.52
			c-0.005,4.479,1.324,9.019,2.746,13.265c1.703,5.085,3.922,9.528,7.653,13.38c1.805,1.863,3.762,3.63,6.073,4.808
			s5.028,1.724,7.535,1.061c5.237-1.386,10.13-3.779,13.671-7.88c2.247-2.603,3.935-5.642,5.391-8.757
			c3.119-6.675,5.259-13.95,5.042-21.315c-0.217-7.365-2.99-14.837-8.459-19.775C642.725,37.871,632.49,35.785,625.575,38.329z"/>
		<g>
			<path style="fill:#004748;" d="M626.463,63.89c0.153,0.937,0.168,1.883,0.231,2.825c0.037,0.942,0.062,1.884,0.063,2.826
				c0.017,1.883-0.033,3.763-0.105,5.643l-0.01,0.261l-0.222,0.146c-1.364,0.897-2.745,1.769-4.161,2.586l0.057-0.619
				c0.668,0.687,1.322,1.39,1.972,2.096c0.634,0.723,1.291,1.422,1.904,2.167c-0.771-0.58-1.497-1.207-2.247-1.809
				c-0.734-0.619-1.464-1.242-2.179-1.88l-0.354-0.316l0.411-0.304c1.315-0.972,2.666-1.889,4.034-2.78l-0.232,0.406
				c0.093-1.875,0.196-3.751,0.345-5.625C626.096,67.637,626.321,65.769,626.463,63.89z"/>
		</g>
		<path style="fill:#004748;" d="M633.854,69.904c0,1.084,0.879,1.963,1.963,1.963c1.084,0,1.963-0.879,1.963-1.963
			c0-1.084-0.879-1.963-1.963-1.963C634.733,67.94,633.854,68.819,633.854,69.904z"/>
		<path style="fill:#004748;" d="M617.081,69.461c0,1.084,0.879,1.963,1.963,1.963c1.084,0,1.963-0.879,1.963-1.963
			c0-1.084-0.879-1.963-1.963-1.963C617.96,67.498,617.081,68.377,617.081,69.461z"/>
		<g>
			<path style="fill:#004748;" d="M632.013,82.786c-0.629,1.251-1.521,2.372-2.592,3.311c-1.06,0.938-2.364,1.73-3.902,1.921
				c-0.76,0.102-1.614-0.072-2.273-0.424c-0.676-0.349-1.254-0.812-1.751-1.332c-1-1.034-1.744-2.251-2.276-3.541
				c0.869,1.085,1.804,2.098,2.818,2.955c1.022,0.829,2.185,1.511,3.373,1.315c1.222-0.138,2.418-0.771,3.508-1.534
				C630.004,84.678,631.056,83.796,632.013,82.786z"/>
		</g>
		<g>
			<path style="fill:#004748;" d="M643.629,66.143c-0.758-0.772-1.583-1.443-2.493-1.948c-0.897-0.517-1.85-0.903-2.817-1.145
				c-0.982-0.243-1.978-0.14-2.937-0.315c-0.98-0.159-1.969-0.267-3.152-0.517l-0.058-0.199c0.894-0.859,2.076-1.244,3.258-1.353
				c1.204-0.125,2.363,0.357,3.428,0.819c1.078,0.463,2.058,1.106,2.896,1.88c0.825,0.787,1.54,1.672,2.044,2.657L643.629,66.143z"
				/>
		</g>
		<g>
			<path style="fill:#004748;" d="M612.502,65.095c0.392-0.961,1.094-1.795,1.897-2.496c0.818-0.69,1.769-1.225,2.776-1.61
				c0.995-0.384,2.032-0.827,3.108-0.757c1.065,0.058,2.116,0.287,3.088,0.915l-0.012,0.207c-1.028,0.513-1.985,0.73-2.917,0.942
				c-0.921,0.225-1.872,0.103-2.8,0.282c-0.914,0.178-1.817,0.461-2.667,0.882c-0.86,0.407-1.641,0.99-2.295,1.743L612.502,65.095z"
				/>
		</g>
		<path style="fill:#004748;" d="M657.283,83.321c-3.248-1.657-5.698-4.7-6.911-8.139c-1.214-3.438-1.238-7.238-0.369-10.78
			c-8.052-3.076-14.61-9.364-18.21-17.196c-0.481,4.181-2.185,7.715-4.763,11.042c-0.2,0.257-0.437,0.53-0.759,0.574
			c-0.495,0.067-0.878-0.429-1.063-0.894c-0.723-1.819-0.188-3.868,0.352-5.75c-1.549,3.061-4.726,5.555-7.88,6.905
			c-3.154,1.35-6.786,1.552-10.07,0.559c-0.235-4.254,0.893-8.289,3.306-11.801c2.413-3.512,5.72-6.336,9.302-8.642
			c2.902-1.868,6.041-3.434,9.406-4.198c3.24-0.735,6.611-0.708,9.917-0.378c3.257,0.326,6.532,0.958,9.456,2.429
			c7.035,3.537,10.943,11.362,12.511,19.078C663.372,65.296,662.494,75.555,657.283,83.321z"/>
		<g>
			<path style="fill:#FF7E82;" d="M649.224,106.386c-1.598-0.902-2.768-1.665-3.229-2.179c-2.564-2.863-2.282-15.596-2.282-15.596
				l-15.74,4.493l-1.489,13.352l-4.214,2.26l11.584,33.82L649.224,106.386z"/>
		</g>
		<path style="fill:#49C6E5;" d="M621.981,115.44c3.646,3.357,8.593,5.263,13.548,5.22c4.956-0.042,9.869-2.033,13.457-5.451
			c-1.276,4.69-2.088,9.427-3.364,14.117c-1.46,5.369-3.213,11.171-7.755,14.384c-0.74,0.523-1.563,0.972-2.462,1.088
			c-0.973,0.126-1.956-0.148-2.858-0.532c-3.523-1.501-6.125-4.668-7.733-8.144c-1.608-3.476-2.339-7.281-3.057-11.043
			C621.202,122.167,621.345,118.337,621.981,115.44z"/>
		<path style="fill:#FFFFFF;" d="M685.639,270.281c-5.864-32.423-11.186-51.434-12.724-61.945c-1.538-10.511,0-90.755,0-90.755
			s-16.387-7.073-23.69-11.195l-15.37,36.15l-11.584-33.82l-21.483,11.521c0,0,1.725,33.113,2.07,50.015
			s-6.554,63.812-12.073,92.796c-5.519,28.984,0,117.956,0,117.956s16.885,9.817,42.249,10.931
			c0.766-13.046,3.799-72.328,3.799-72.328l10.608,71.932c23.678-2.368,42.825-12.367,42.825-12.367
			S691.502,302.704,685.639,270.281z"/>
		<path style="fill:#FFFBFA;" d="M600.786,120.237c0,0-17.585,15.878-14.926,39.75c2.659,23.872,15.305,62.691,20.623,74.215
			c5.319,11.524,13.592,26.889,13.592,26.889l10.208-3.241l-27.57-93.078L600.786,120.237z"/>
		<path style="fill:#FFFBFA;" d="M672.914,117.581c0,0,17.988,12.587,15.329,36.459c-2.659,23.872-13.151,68.638-18.47,80.162
			c-5.319,11.524-13.592,26.889-13.592,26.889l-10.208-3.241l26.312-92.126L672.914,117.581z"/>
		<path style="fill:#AC3A31;" d="M623.008,265.886c2.909,6.72,6.38,13.571,7.598,20.995c0.593,3.614,1.209,7.303,2.747,10.495
			c0.284,0.59,0.627,1.189,1.148,1.464c0.521,0.275,1.573-0.187,1.52-0.865c-0.506-6.441-1.512-13.201-3.242-19.331
			c1.114,3.735,3.698,7.117,3.937,11.072c0.237,3.928,0.89,7.82,1.939,11.553c0.137,0.488,0.295,0.999,0.626,1.329
			c0.331,0.33,1.203,0.422,1.312-0.076c1.097-5.012,0.906-10.327,0.061-15.408c-0.844-5.081-2.108-10.126-3.581-14.998
			c1.575,4.59,4.356,8.876,5.736,13.554c0.528,1.789,0.875,3.649,1.429,5.426c0.554,1.777,1.344,3.508,2.576,4.704
			c0.277,0.27,0.592,0.518,0.949,0.556c0.356,0.038,0.853-0.202,0.8-0.625c-1.117-8.902-3.458-17.84-7.189-25.661
			c2.65,4.868,5.304,9.747,7.546,14.9c0.456,1.048,1.158,2.282,2.136,2.102c-0.019-1.45-0.296-2.878-0.626-4.274
			c-2.584-10.939-8.437-20.479-15.485-28.115c0,0-1.582,2.199-4.434,5.198C627.888,262.641,623.008,265.886,623.008,265.886z"/>
		<path style="fill:#FF7E82;" d="M650.878,268.12c-3.225,6.511-7.017,13.115-8.587,20.444c-0.764,3.568-1.555,7.209-3.242,10.291
			c-0.312,0.57-0.683,1.145-1.216,1.384c-0.534,0.239-1.562-0.294-1.476-0.966c0.812-6.396,2.139-13.076,4.158-19.079
			c-1.29,3.653-4.032,6.854-4.458,10.786c-0.424,3.906-1.262,7.747-2.487,11.402c-0.16,0.478-0.342,0.977-0.689,1.284
			c-0.346,0.307-1.221,0.34-1.306-0.165c-0.857-5.078-0.412-10.372,0.674-15.387c1.085-5.016,2.588-9.966,4.291-14.73
			c-1.791,4.475-4.772,8.565-6.373,13.142c-0.612,1.75-1.048,3.583-1.686,5.32c-0.638,1.736-1.51,3.411-2.796,4.522
			c-0.29,0.25-0.616,0.476-0.974,0.49c-0.357,0.014-0.842-0.26-0.769-0.678c1.54-8.812,4.303-17.576,8.401-25.13
			c-2.878,4.68-5.76,9.37-8.244,14.362c-0.505,1.016-1.265,2.199-2.232,1.953c0.088-1.447,0.433-2.853,0.828-4.224
			c3.101-10.746,10.609-18.139,18.009-25.283c0,0,0.265,0.57,2.969,3.759C646.161,264.548,650.878,268.12,650.878,268.12z"/>
		<g>
			<path style="fill:#004748;" d="M597.589,209.972l2.786,7.194c0.919,2.4,1.852,4.794,2.808,7.178
				c1.909,4.767,3.811,9.54,5.967,14.189c2.089,4.665,4.566,9.187,6.865,13.78l6.993,13.75c-2.672-4.398-5.205-8.876-7.687-13.382
				c-1.257-2.245-2.449-4.524-3.647-6.801c-1.19-2.274-2.391-4.57-3.461-6.918c-2.109-4.71-4.011-9.497-5.778-14.332
				c-0.867-2.423-1.716-4.853-2.541-7.29C599.106,214.888,598.3,212.445,597.589,209.972z"/>
		</g>
		<g>
			<path style="fill:#004748;" d="M634.946,254.682c-3.091-6.389-6.087-12.825-8.97-19.312c-2.859-6.497-5.711-13.003-8.242-19.647
				c-1.248-3.326-2.465-6.681-3.409-10.128c-0.933-3.43-1.798-6.876-2.629-10.329c-1.64-6.912-3.123-13.854-4.535-20.816
				l0.106,0.214c-1.339-1.653-2.332-3.457-3.148-5.364c-0.803-1.904-1.387-3.904-1.688-5.948c-0.659-4.087-0.164-8.298,0.995-12.201
				c1.08-3.937,2.503-7.766,4.141-11.492c1.649-3.72,3.465-7.368,5.551-10.856c-1.943,3.568-3.668,7.25-5.209,11.001
				c-1.515,3.761-2.861,7.592-3.874,11.508c-1.084,3.893-1.482,7.954-0.783,11.907c0.677,3.914,2.255,7.768,4.71,10.833l0.084,0.104
				l0.023,0.11c1.439,6.941,2.99,13.865,4.624,20.762c0.811,3.45,1.654,6.893,2.565,10.315c0.912,3.406,2.098,6.736,3.323,10.059
				c2.522,6.619,5.175,13.199,7.944,19.729C629.294,241.663,632.093,248.184,634.946,254.682z"/>
		</g>
		<g>
			<path style="fill:#004748;" d="M663.679,142.537c1.528,9.839,2.082,19.829,1.847,29.799c-0.123,4.985-0.472,9.973-1.165,14.92
				c-0.695,4.949-1.661,9.85-2.817,14.701c-2.349,9.695-5.298,19.238-8.815,28.563c-3.508,9.325-7.448,18.494-12.027,27.336
				c2.108-4.508,4.084-9.074,5.945-13.685c1.884-4.601,3.682-9.237,5.329-13.926c3.36-9.352,6.292-18.861,8.564-28.526
				c1.181-4.821,2.172-9.691,2.891-14.591c0.729-4.905,1.063-9.862,1.307-14.818c0.218-4.96,0.212-9.931,0.026-14.897
				C664.6,152.444,664.251,147.48,663.679,142.537z"/>
		</g>
		<g>
			<path style="fill:#004748;" d="M675.542,216.546c-1.318,4.604-2.837,9.147-4.45,13.657c-1.612,4.511-3.409,8.956-5.328,13.354
				c-0.964,2.197-2.044,4.346-3.156,6.478c-1.159,2.119-2.377,4.18-3.652,6.206c-2.554,4.049-5.131,8.098-8.079,11.879
				c1.293-2.015,2.537-4.055,3.745-6.119c1.233-2.047,2.438-4.111,3.625-6.186c1.192-2.073,2.418-4.126,3.516-6.225
				c1.082-2.118,2.097-4.273,3.066-6.452c1.989-4.335,3.752-8.777,5.535-13.21C672.125,225.484,673.833,221.018,675.542,216.546z"/>
		</g>
		<path style="fill:none;stroke:#004748;stroke-width:1.0348;stroke-miterlimit:10;" d="M618.731,110.614
			c-0.329,0.176,14.823,43.426,14.823,43.426l19.419-45.667"/>
		<g>
			<g>
				<path style="fill:#004748;" d="M656.042,109.341c1.302,1.516,2.294,3.326,3.037,5.237c0.417,1.986,0.661,3.993,0.72,5.991
					c0.15,3.983-0.272,7.99-1.048,11.857c-0.771,3.88-1.798,7.655-2.836,11.424l-1.617,5.633c-0.849,1.785-1.697,3.566-2.648,5.317
					c0.16-1.986,0.423-3.941,0.669-5.896l1.602-5.609c1.032-3.745,2.051-7.499,2.799-11.268c0.755-3.773,1.152-7.57,1.01-11.384
					c-0.07-1.896-0.257-3.782-0.702-5.597C656.918,113.153,656.574,111.266,656.042,109.341z"/>
			</g>
			<path style="fill:#004748;" d="M643.683,151.34c-1.91,4.4,0.109,9.516,4.509,11.426c4.4,1.91,9.516-0.109,11.426-4.509
				c1.91-4.4-0.108-9.516-4.509-11.426C650.709,144.921,645.593,146.94,643.683,151.34z"/>
			<path style="fill:#00BD9D;" d="M646.892,152.733c-1.141,2.628,0.065,5.683,2.693,6.823c2.628,1.141,5.683-0.065,6.823-2.693
				c1.141-2.628-0.065-5.683-2.693-6.823C651.088,148.9,648.033,150.105,646.892,152.733z"/>
		</g>
		<g>
			<g>
				<path style="fill:#004748;" d="M619.642,109.965c-0.497,0.945-1.073,1.792-1.626,2.637c-0.768,0.581-1.477,1.219-2.175,1.854
					c-1.381,1.281-2.625,2.676-3.478,4.246c-0.425,0.793-0.727,1.598-0.947,2.48c-0.227,0.915-0.408,1.846-0.556,2.784
					c-0.155,0.938-0.25,1.886-0.363,2.832l-1.173,2.831c-0.396-0.983-0.64-1.992-0.86-3.012c0.061-0.997,0.202-1.986,0.352-2.975
					c0.156-0.988,0.348-1.974,0.591-2.953c0.248-1.011,0.634-2.045,1.135-2.97c1.016-1.866,2.42-3.412,3.891-4.78
					c0.734-0.689,1.509-1.318,2.255-1.968C617.649,110.587,618.606,110.227,619.642,109.965z"/>
			</g>
			
				<rect x="607.368" y="124.795" transform="matrix(-0.9978 -0.0667 0.0667 -0.9978 1209.0577 294.726)" style="fill:#00BD9D;" width="4.159" height="4.783"/>
			<path style="fill:none;stroke:#004748;stroke-width:2.0696;stroke-miterlimit:10;" d="M610.712,164.099l0.791-0.345
				c2.658-1.16,4.477-3.667,4.745-6.555c0.824-8.903,1.505-27.311-6.924-27.569c-8.086-0.247-10.905,16.927-11.843,26.325
				c-0.35,3.508,1.669,6.819,4.935,8.144l0,0"/>
			<path style="fill:#00BD9D;" d="M610.468,162.566l-2.557,0.997c-0.836,0.326-1.25,1.268-0.924,2.104l0,0
				c0.326,0.836,1.268,1.25,2.104,0.924l2.557-0.997c0.836-0.326,1.25-1.268,0.924-2.104l0,0
				C612.246,162.653,611.304,162.24,610.468,162.566z"/>
			<path style="fill:#00BD9D;" d="M602.081,162.034l2.459,1.217c0.804,0.398,1.133,1.373,0.735,2.177l0,0
				c-0.398,0.804-1.373,1.133-2.177,0.735l-2.459-1.217c-0.804-0.398-1.133-1.373-0.735-2.177l0,0
				C600.302,161.965,601.276,161.636,602.081,162.034z"/>
		</g>
		<path style="fill:#004748;" d="M625.014,99.475c0,0,3.302,1.654,8.894,0.758c4.074-0.653,7.829-3.795,7.829-3.795
			s-1.966,3.742-7.685,5.12c-5.719,1.378-9.425,0.206-9.425,0.206L625.014,99.475z"/>
		<g style="opacity:0.39;">
			<g>
				<path style="fill:#FFFFFF;" d="M605.641,53.826c2.532-0.066,5.001-0.8,7.189-2.001c2.199-1.193,4.122-2.855,5.681-4.807
					c1.587-1.933,2.828-4.14,3.797-6.455c0.492-1.155,0.908-2.344,1.179-3.569c0.286-1.22,0.417-2.487,0.287-3.747
					c0.438,2.519-0.184,5.108-1.096,7.464c-0.907,2.379-2.173,4.629-3.765,6.632c-1.627,1.968-3.604,3.686-5.898,4.832
					C610.741,53.346,608.173,53.952,605.641,53.826z"/>
			</g>
			<g>
				<path style="fill:#FFFFFF;" d="M631.556,31.777c0.639,3.873,1.996,7.604,3.951,10.977c1.964,3.368,4.529,6.382,7.597,8.782
					c3.039,2.433,6.543,4.275,10.262,5.442c1.86,0.578,3.774,1.013,5.719,1.182c1.94,0.19,3.919,0.112,5.829-0.35
					c-3.801,1.105-7.896,0.644-11.663-0.451c-3.795-1.103-7.356-2.978-10.468-5.418c-3.089-2.471-5.705-5.536-7.62-8.991
					c-0.953-1.729-1.741-3.546-2.361-5.416C632.208,35.655,631.792,33.725,631.556,31.777z"/>
			</g>
			<g>
				<path style="fill:#FFFFFF;" d="M662.782,50.615c-2.385,0.267-4.839-0.157-7.071-1.083c-2.24-0.92-4.264-2.329-5.994-4.021
					c-1.701-1.722-3.121-3.705-4.251-5.829c-1.137-2.123-1.996-4.376-2.666-6.673c0.851,2.236,1.831,4.419,3.014,6.48
					c1.186,2.056,2.577,4.001,4.268,5.656c1.659,1.68,3.632,3.048,5.786,4.023C658.021,50.134,660.387,50.691,662.782,50.615z"/>
			</g>
			<g>
				<path style="fill:#FFFFFF;" d="M594.806,93.625c1.98,0.288,3.995,0.003,5.819-0.719c1.823-0.723,3.492-1.846,4.795-3.306
					c1.336-1.436,2.318-3.18,3.002-5.026c0.686-1.851,1.055-3.82,1.174-5.813c0.096,1.997-0.175,4.022-0.799,5.944
					c-0.623,1.921-1.64,3.726-2.996,5.244c-1.387,1.49-3.121,2.662-5.039,3.33C598.853,93.947,596.75,94.126,594.806,93.625z"/>
			</g>
			<g>
				<path style="fill:#FFFFFF;" d="M608.674,101.274c0.533,0.018,1.005-0.228,1.406-0.539c0.406-0.308,0.792-0.664,1.15-1.033
					c0.722-0.737,1.366-1.545,1.903-2.42c1.102-1.74,1.785-3.716,2.091-5.798c0.057,1.054-0.085,2.119-0.365,3.148
					c-0.271,1.033-0.728,2.013-1.288,2.924c-0.571,0.904-1.257,1.741-2.071,2.434c-0.406,0.347-0.823,0.674-1.283,0.955
					C609.756,101.203,609.198,101.413,608.674,101.274z"/>
			</g>
			<g>
				<path style="fill:#FFFFFF;" d="M660.46,58.65c0.519,3.738,0.725,7.533,0.472,11.316c-0.267,3.775-0.954,7.547-2.247,11.123
					c-1.289,3.569-3.117,6.966-5.551,9.884c-1.217,1.441-2.538,2.855-4.149,3.865c-1.573,1.045-3.17,2.064-4.873,2.88
					c3.285-1.826,6.538-3.888,8.763-6.954c2.301-2.964,4.1-6.305,5.336-9.843c1.26-3.531,1.993-7.242,2.305-10.985
					C660.845,66.19,660.772,62.41,660.46,58.65z"/>
			</g>
		</g>
		<g>
			<path style="fill:#FF7E82;" d="M660.153,70.529c0.092,1.235-0.153,2.513-0.499,3.74c-0.591,2.097-1.531,4.186-3.046,5.62
				c-1.514,1.435-3.688,2.063-5.263,1.103c-1.286-0.785-1.967-2.479-2.061-4.209c-0.094-1.729,0.321-3.503,0.823-5.21
				c0.324-1.101,0.695-2.212,1.315-3.16c0.875-1.335,2.233-2.262,3.62-2.469C657.555,65.57,659.941,67.686,660.153,70.529z"/>
			<path style="fill:#FF7E82;" d="M650.756,78.625c0.55-0.275,1.078-0.622,1.568-1.032c0.162-0.135,0.33-0.294,0.389-0.509
				c0.076-0.28-0.06-0.547-0.192-0.773c-0.434-0.748-0.867-1.495-1.301-2.243c0.367-1.07,0.748-2.145,1.303-3.121
				c0.555-0.976,1.302-1.857,2.215-2.34c0.913-0.484,2.004-0.517,2.763,0.082c0.732,0.578,1.058,1.635,1.177,2.68
				c0,0,0.057,3.896-2.585,6.122S650.756,78.625,650.756,78.625z"/>
			<g>
				<path style="fill:#004748;" d="M658.678,71.37c-0.198-1.011-0.579-2.08-1.397-2.61c-0.832-0.515-1.917-0.269-2.703,0.266
					c-0.814,0.552-1.423,1.393-1.896,2.283c-0.492,0.89-0.85,1.865-1.202,2.849l-0.022-0.226c0.247,0.429,0.482,0.865,0.712,1.305
					c0.227,0.457,0.476,0.831,0.687,1.358c0.102,0.268,0.04,0.647-0.168,0.849c-0.196,0.209-0.405,0.332-0.611,0.478
					c-0.417,0.279-0.858,0.521-1.321,0.703c0.423-0.262,0.824-0.549,1.196-0.868c0.379-0.324,0.765-0.659,0.564-1.046
					c-0.185-0.381-0.507-0.827-0.753-1.238c-0.267-0.418-0.529-0.838-0.779-1.266l-0.062-0.106l0.04-0.121
					c0.329-0.996,0.67-2.007,1.169-2.967c0.517-0.945,1.201-1.84,2.143-2.452c0.914-0.622,2.259-0.802,3.217-0.108
					c0.469,0.34,0.758,0.844,0.926,1.352C658.588,70.315,658.665,70.844,658.678,71.37z"/>
			</g>
		</g>
		<path style="fill:#FFFFFF;" d="M654.716,82.544c0,1.129-0.916,2.045-2.045,2.045c-1.129,0-2.045-0.915-2.045-2.045
			c0-1.129,0.916-2.045,2.045-2.045C653.8,80.5,654.716,81.415,654.716,82.544z"/>
	</g>
</g>
</svg>
