<?xml version="1.0" encoding="utf-8"?>
<!-- Generator: Adobe Illustrator 27.5.0, SVG Export Plug-In . SVG Version: 6.00 Build 0)  -->
<svg version="1.1" xmlns="http://www.w3.org/2000/svg" xmlns:xlink="http://www.w3.org/1999/xlink" x="0px" y="0px"
	 viewBox="0 0 500 500" style="enable-background:new 0 0 500 500;" xml:space="preserve">
<g id="Background_complete">
	<g>
		<g>
			<g>
				<g>
					<g>
						<path style="fill:#E0E0E0;" d="M443.92,314.061H263.174c-3.232,0-5.862-2.63-5.862-5.862V44.925
							c0-3.232,2.63-5.862,5.862-5.862H443.92c3.232,0,5.862,2.629,5.862,5.862v263.273
							C449.783,311.431,447.153,314.061,443.92,314.061z M263.174,39.314c-3.095,0-5.612,2.518-5.612,5.612v263.273
							c0,3.095,2.518,5.612,5.612,5.612H443.92c3.095,0,5.612-2.517,5.612-5.612V44.925c0-3.094-2.518-5.612-5.612-5.612H263.174z"
							/>
					</g>
				</g>
				<g>
					<g>
						<path style="fill:#E0E0E0;" d="M235.493,314.061H54.746c-3.232,0-5.862-2.63-5.862-5.862V44.925
							c0-3.232,2.629-5.862,5.862-5.862h180.747c3.232,0,5.862,2.629,5.862,5.862v263.273
							C241.355,311.431,238.725,314.061,235.493,314.061z M54.746,39.314c-3.094,0-5.612,2.518-5.612,5.612v263.273
							c0,3.095,2.518,5.612,5.612,5.612h180.747c3.095,0,5.612-2.517,5.612-5.612V44.925c0-3.094-2.518-5.612-5.612-5.612H54.746z"
							/>
					</g>
				</g>
			</g>
			<g>
				<g>
					<rect x="0" y="375.131" style="fill:#E0E0E0;" width="500" height="0.25"/>
				</g>
			</g>
		</g>
		<rect x="51.672" y="389.395" style="fill:#E0E0E0;" width="16.06" height="0.25"/>
		<rect x="170.352" y="386.685" style="fill:#E0E0E0;" width="53.53" height="0.25"/>
		<rect x="68.732" y="398.685" style="fill:#E0E0E0;" width="36.25" height="0.25"/>
		<rect x="378.352" y="386.555" style="fill:#E0E0E0;" width="43.19" height="0.25"/>
		<rect x="430.452" y="386.555" style="fill:#E0E0E0;" width="6.33" height="0.25"/>
		<rect x="316.212" y="392.785" style="fill:#E0E0E0;" width="53.89" height="0.25"/>
	</g>
	<path style="fill:#EBEBEB;" d="M283.488,122.372c-3.139,7.648-4.689,15.681-4.794,23.677l-12.018,3.527l4.598,23.708l12.467-1.221
		c3.085,7.375,7.527,14.245,13.298,20.167l-5.987,10.961l20.016,13.512l7.928-9.65c7.649,3.138,15.682,4.689,23.677,4.794
		l3.528,12.019l23.707-4.6l-1.221-12.465c7.376-3.088,14.247-7.529,20.168-13.299l10.961,5.987l13.512-20.016l-9.65-7.928
		c3.138-7.649,4.689-15.682,4.793-23.676l12.017-3.528l-4.597-23.708l-12.466,1.221c-3.087-7.375-7.529-14.245-13.3-20.166
		l5.987-10.961l-20.016-13.512l-7.927,9.651c-7.65-3.139-15.683-4.691-23.677-4.796l-3.528-12.018l-23.708,4.6l1.222,12.465
		c-7.376,3.086-14.246,7.527-20.167,13.298l-10.961-5.987l-13.513,20.017L283.488,122.372z M361.874,119.863
		c14.963,10.102,18.906,30.423,8.804,45.388c-10.103,14.965-30.425,18.906-45.388,8.805c-14.965-10.103-18.906-30.423-8.804-45.388
		C326.589,113.703,346.909,109.76,361.874,119.863z"/>
	<path style="fill:#E0E0E0;" d="M136.1,58.522c-2.824,4.301-4.723,9.025-5.735,13.898l-7.761,0.731l-0.001,15.03l7.762,0.731
		c1.011,4.871,2.911,9.596,5.735,13.897l-4.957,5.987l10.628,10.628l5.987-4.957c4.301,2.824,9.026,4.724,13.898,5.735l0.731,7.761
		l15.029-0.001l0.731-7.76c4.873-1.012,9.597-2.912,13.898-5.736l5.987,4.957l10.628-10.628l-4.957-5.988
		c2.824-4.301,4.723-9.025,5.735-13.897l7.76-0.731l0.001-15.029l-7.761-0.731c-1.012-4.872-2.912-9.596-5.736-13.897l4.957-5.987
		l-10.628-10.628l-5.987,4.957c-4.302-2.824-9.026-4.725-13.898-5.736l-0.731-7.761l-15.03,0.001l-0.731,7.761
		c-4.872,1.012-9.596,2.911-13.897,5.735l-5.987-4.957l-10.628,10.628L136.1,58.522z M184.29,66.279
		c7.945,7.945,7.945,20.828,0,28.774c-7.946,7.946-20.829,7.945-28.774,0c-7.946-7.946-7.946-20.828,0-28.774
		C163.461,58.333,176.343,58.333,184.29,66.279z"/>
	<path style="fill:#EBEBEB;" d="M169.011,163.805c-3.669,5.587-6.135,11.723-7.45,18.053l-10.081,0.949l-0.001,19.523l10.083,0.95
		c1.313,6.328,3.781,12.465,7.45,18.053l-6.439,7.777l13.805,13.805l7.777-6.439c5.587,3.668,11.724,6.136,18.053,7.45l0.949,10.082
		l19.523-0.001l0.95-10.08c6.329-1.315,12.466-3.782,18.053-7.45l7.777,6.439l13.805-13.805l-6.439-7.778
		c3.668-5.587,6.135-11.724,7.449-18.052l10.08-0.95l0.001-19.523l-10.081-0.95c-1.314-6.328-3.783-12.465-7.451-18.052l6.439-7.778
		l-13.805-13.805l-7.777,6.439c-5.588-3.669-11.725-6.137-18.052-7.451l-0.95-10.081l-19.523,0.001l-0.949,10.081
		c-6.329,1.314-12.465,3.781-18.052,7.449l-7.777-6.439l-13.806,13.806L169.011,163.805z M231.608,173.881
		c10.32,10.321,10.321,27.056,0,37.377c-10.322,10.322-27.057,10.321-37.377,0c-10.322-10.322-10.321-27.055,0-37.377
		C204.552,163.56,221.286,163.559,231.608,173.881z"/>
	<path style="fill:#E6E6E6;" d="M227.003,83.602c-1.441,2.195-2.41,4.605-2.927,7.092l-3.96,0.373l0,7.669l3.961,0.373
		c0.516,2.486,1.485,4.896,2.926,7.092l-2.529,3.055l5.423,5.423l3.055-2.529c2.195,1.441,4.606,2.41,7.092,2.926l0.373,3.961
		l7.669,0l0.373-3.96c2.486-0.516,4.897-1.486,7.092-2.927l3.055,2.529l5.423-5.423l-2.529-3.055
		c1.441-2.195,2.41-4.605,2.926-7.092l3.96-0.373l0-7.669l-3.96-0.373c-0.516-2.486-1.486-4.897-2.927-7.091l2.529-3.055
		l-5.423-5.423l-3.055,2.529c-2.195-1.441-4.606-2.411-7.092-2.927l-0.373-3.96l-7.669,0l-0.373,3.96
		c-2.486,0.516-4.897,1.485-7.091,2.926l-3.055-2.53l-5.423,5.423L227.003,83.602z M251.593,87.56
		c4.054,4.054,4.054,10.628,0,14.683c-4.055,4.055-10.629,4.054-14.683,0c-4.055-4.055-4.055-10.628,0-14.683
		C240.965,83.506,247.538,83.506,251.593,87.56z"/>
	<path style="fill:#F0F0F0;" d="M262.468,48.05c-0.981,1.494-1.64,3.134-1.992,4.827l-2.695,0.254l0,5.22l2.696,0.254
		c0.351,1.692,1.011,3.333,1.992,4.827l-1.722,2.079l3.691,3.691l2.079-1.721c1.494,0.981,3.135,1.64,4.827,1.992l0.254,2.696
		l5.22,0l0.254-2.695c1.692-0.352,3.333-1.011,4.827-1.992l2.079,1.721l3.691-3.691l-1.721-2.079
		c0.981-1.494,1.64-3.135,1.992-4.827l2.695-0.254l0-5.22l-2.695-0.254c-0.351-1.692-1.011-3.333-1.992-4.826l1.721-2.08
		l-3.691-3.691l-2.079,1.722c-1.494-0.981-3.135-1.641-4.827-1.992l-0.254-2.695l-5.22,0l-0.254,2.695
		c-1.692,0.351-3.333,1.011-4.827,1.992l-2.079-1.722l-3.691,3.691L262.468,48.05z M279.204,50.744c2.759,2.759,2.759,7.234,0,9.993
		c-2.76,2.76-7.234,2.759-9.994,0c-2.76-2.76-2.76-7.234,0-9.993C271.97,47.985,276.444,47.984,279.204,50.744z"/>
	<path style="fill:#F0F0F0;" d="M424.167,161.568c-0.981,1.494-1.64,3.134-1.992,4.827l-2.695,0.254l0,5.22l2.696,0.254
		c0.351,1.692,1.011,3.333,1.992,4.827l-1.722,2.079l3.691,3.691l2.079-1.721c1.494,0.981,3.135,1.641,4.827,1.992l0.254,2.696
		l5.22,0l0.254-2.695c1.692-0.352,3.333-1.011,4.827-1.992l2.079,1.721l3.691-3.691l-1.721-2.079
		c0.981-1.494,1.64-3.135,1.992-4.827l2.695-0.254l0-5.22l-2.695-0.254c-0.351-1.692-1.011-3.333-1.992-4.826l1.722-2.08
		l-3.691-3.691l-2.079,1.722c-1.494-0.981-3.135-1.641-4.827-1.992l-0.254-2.695l-5.22,0l-0.254,2.695
		c-1.692,0.351-3.333,1.011-4.827,1.992l-2.079-1.722l-3.691,3.691L424.167,161.568z M440.903,164.262
		c2.759,2.759,2.759,7.234,0,9.993c-2.76,2.76-7.234,2.759-9.994,0c-2.76-2.76-2.76-7.234,0-9.993
		C433.67,161.503,438.144,161.502,440.903,164.262z"/>
	<path style="fill:#F0F0F0;" d="M84.143,146.228c-2.106,3.207-3.522,6.73-4.277,10.364l-5.788,0.545l0,11.208l5.788,0.545
		c0.754,3.633,2.171,7.156,4.277,10.364l-3.697,4.465l7.925,7.925l4.465-3.696c3.208,2.106,6.731,3.523,10.364,4.277l0.545,5.788
		l11.208-0.001l0.545-5.787c3.634-0.755,7.156-2.171,10.364-4.277l4.465,3.696l7.925-7.925l-3.696-4.465
		c2.106-3.208,3.522-6.73,4.277-10.364l5.787-0.546l0.001-11.208l-5.788-0.545c-0.754-3.633-2.171-7.156-4.277-10.363l3.696-4.465
		l-7.925-7.925l-4.465,3.697c-3.208-2.106-6.731-3.523-10.364-4.277l-0.545-5.788l-11.208,0.001l-0.545,5.787
		c-3.633,0.754-7.156,2.171-10.363,4.277l-4.465-3.697l-7.926,7.926L84.143,146.228z M120.079,152.012
		c5.925,5.925,5.925,15.532,0,21.458c-5.926,5.926-15.533,5.925-21.458,0c-5.925-5.926-5.925-15.532,0-21.458
		C104.547,146.087,114.153,146.087,120.079,152.012z"/>
	<path style="fill:#F0F0F0;" d="M193.91,284.883c-2.106,3.207-3.522,6.73-4.277,10.364l-5.788,0.545l0,11.208l5.788,0.545
		c0.754,3.633,2.171,7.156,4.277,10.364l-3.697,4.465l7.926,7.925l4.465-3.696c3.208,2.106,6.731,3.522,10.364,4.277l0.545,5.788
		l11.208-0.001l0.545-5.787c3.634-0.755,7.156-2.171,10.364-4.277l4.465,3.696l7.925-7.926l-3.696-4.465
		c2.106-3.208,3.522-6.73,4.276-10.364l5.787-0.546l0.001-11.208l-5.788-0.545c-0.754-3.633-2.171-7.156-4.277-10.363l3.697-4.465
		l-7.925-7.925l-4.465,3.696c-3.208-2.106-6.731-3.523-10.364-4.277l-0.545-5.788l-11.208,0.001l-0.545,5.787
		c-3.633,0.754-7.156,2.171-10.363,4.277l-4.465-3.697l-7.926,7.926L193.91,284.883z M229.846,290.667
		c5.925,5.925,5.925,15.532,0,21.458c-5.926,5.926-15.533,5.925-21.458,0c-5.926-5.926-5.925-15.532,0-21.458
		C214.314,284.742,223.92,284.742,229.846,290.667z"/>
	<g>
		<g>
			<g>
				<path style="fill:#E6E6E6;" d="M80.718,241.584c-13.958,16.327-18.035,40.495-10.205,60.497
					c8.7-7.765,14.826-19.6,15.214-29.952C86.115,261.777,83.406,251.588,80.718,241.584z"/>
			</g>
			<g>
				<path style="fill:#E6E6E6;" d="M78.284,303.968c-4.736,7.257-7.003,16.094-6.345,24.735c7.546-2.627,14.198-11.15,18.186-18.074
					c3.988-6.923,6.218-14.699,8.247-22.427C90.196,291.078,83.02,296.711,78.284,303.968z"/>
			</g>
			<g>
				<g>
					<path style="fill:#E0E0E0;" d="M76.458,270.073c-5.604,20.157-8.465,41.058-8.45,61.981c0.004,5.956,0.247,11.909,0.711,17.847
						c0.037,0.478,0.788,0.482,0.75,0c-1.631-20.873-0.421-41.942,3.634-62.484c1.138-5.765,2.504-11.483,4.078-17.144
						C77.311,269.806,76.587,269.608,76.458,270.073L76.458,270.073z"/>
				</g>
			</g>
			<g>
				<g>
					<path style="fill:#E0E0E0;" d="M69.049,335.552c5.73-13.63,13.257-26.394,21.956-38.332c0.285-0.391-0.366-0.765-0.648-0.379
						c-8.741,11.996-16.274,24.818-22.032,38.512C68.139,335.797,68.864,335.991,69.049,335.552L69.049,335.552z"/>
				</g>
			</g>
			<g>
				<path style="fill:#E6E6E6;" d="M60.839,315.275c3.949,6.051,5.84,13.42,5.291,20.625c-6.292-2.19-11.838-9.298-15.164-15.07
					c-3.325-5.773-5.185-12.257-6.876-18.701C50.906,304.527,56.89,309.224,60.839,315.275z"/>
			</g>
			<g>
				<g>
					<path style="fill:#E0E0E0;" d="M68.878,340.651c-4.707-11.187-10.914-21.553-18.052-31.35
						c-0.281-0.386-0.933-0.012-0.648,0.379c7.096,9.739,13.297,20.047,17.977,31.17C68.339,341.289,69.065,341.096,68.878,340.651
						L68.878,340.651z"/>
				</g>
			</g>
			<g>
				<g>
					<path style="fill:#E0E0E0;" d="M69.076,344.45c8.879-9.134,17.944-18.086,26.824-27.22c0.337-0.346-0.193-0.877-0.53-0.53
						c-8.879,9.134-17.944,18.086-26.824,27.22C68.209,344.266,68.739,344.797,69.076,344.45L69.076,344.45z"/>
				</g>
			</g>
			<g>
				<path style="fill:#E6E6E6;" d="M96.172,312.971c-7.703,7.429-14.722,15.568-20.937,24.28l1.41,0
					c5.863-0.275,11.555-3.167,15.233-7.741C95.556,324.936,97.16,318.757,96.172,312.971z"/>
			</g>
			<g>
				<g>
					<g>
						<path style="fill:#E0E0E0;" d="M59.631,295.298c3.308,5.409,6.424,10.933,9.343,16.561c0.222,0.429,0.87,0.05,0.648-0.378
							c-2.92-5.628-6.036-11.152-9.344-16.561C60.027,294.508,59.378,294.885,59.631,295.298L59.631,295.298z"/>
					</g>
				</g>
				<g>
					<path style="fill:#E6E6E6;" d="M51.73,267.943c-1.261,5.674-2.512,13.052-2.525,18.96c-0.013,5.908,1.79,11.673,5.147,15.632
						c3.357,3.959,10.135,5.693,12.867,3.428L51.73,267.943z"/>
				</g>
			</g>
		</g>
		<rect x="51.557" y="347.026" style="fill:#E0E0E0;" width="35.491" height="6.236"/>
		<polygon style="fill:#E0E0E0;" points="79.758,375.48 58.863,375.48 55.065,351.833 82.758,351.833 		"/>
	</g>
	<g>
		<g>
			<g>
				<path style="fill:#E6E6E6;" d="M439.848,241.584c-13.958,16.327-18.035,40.495-10.205,60.497
					c8.7-7.765,14.826-19.6,15.214-29.952C445.244,261.777,442.535,251.588,439.848,241.584z"/>
			</g>
			<g>
				<path style="fill:#E6E6E6;" d="M437.413,303.968c-4.736,7.257-7.003,16.094-6.345,24.735
					c7.546-2.627,14.198-11.15,18.186-18.074c3.988-6.923,6.218-14.699,8.247-22.427
					C449.325,291.078,442.149,296.711,437.413,303.968z"/>
			</g>
			<g>
				<g>
					<path style="fill:#E0E0E0;" d="M435.587,270.073c-5.604,20.157-8.465,41.058-8.45,61.981
						c0.004,5.956,0.247,11.909,0.711,17.847c0.037,0.478,0.788,0.482,0.75,0c-1.631-20.873-0.421-41.942,3.634-62.484
						c1.138-5.765,2.504-11.483,4.078-17.144C436.44,269.806,435.716,269.608,435.587,270.073L435.587,270.073z"/>
				</g>
			</g>
			<g>
				<g>
					<path style="fill:#E0E0E0;" d="M428.178,335.552c5.73-13.63,13.257-26.394,21.956-38.332c0.285-0.391-0.366-0.765-0.648-0.379
						c-8.741,11.996-16.274,24.818-22.032,38.512C427.268,335.797,427.993,335.991,428.178,335.552L428.178,335.552z"/>
				</g>
			</g>
			<g>
				<path style="fill:#E6E6E6;" d="M419.968,315.275c3.949,6.051,5.84,13.42,5.291,20.625c-6.292-2.19-11.838-9.298-15.164-15.07
					c-3.326-5.773-5.185-12.257-6.877-18.701C410.035,304.527,416.019,309.224,419.968,315.275z"/>
			</g>
			<g>
				<g>
					<path style="fill:#E0E0E0;" d="M428.007,340.651c-4.707-11.187-10.914-21.553-18.052-31.35
						c-0.281-0.386-0.932-0.012-0.648,0.379c7.096,9.739,13.297,20.047,17.977,31.17
						C427.468,341.289,428.194,341.096,428.007,340.651L428.007,340.651z"/>
				</g>
			</g>
			<g>
				<g>
					<path style="fill:#E0E0E0;" d="M428.205,344.45c8.879-9.134,17.944-18.086,26.824-27.22c0.337-0.346-0.193-0.877-0.53-0.53
						c-8.879,9.134-17.944,18.086-26.824,27.22C427.338,344.266,427.868,344.797,428.205,344.45L428.205,344.45z"/>
				</g>
			</g>
			<g>
				<path style="fill:#E6E6E6;" d="M455.301,312.971c-7.703,7.429-14.722,15.568-20.937,24.28l1.409,0
					c5.863-0.275,11.555-3.167,15.233-7.741C454.685,324.936,456.289,318.757,455.301,312.971z"/>
			</g>
			<g>
				<g>
					<g>
						<path style="fill:#E0E0E0;" d="M418.76,295.298c3.307,5.409,6.424,10.933,9.344,16.561c0.222,0.429,0.87,0.05,0.648-0.378
							c-2.92-5.628-6.036-11.152-9.344-16.561C419.156,294.508,418.507,294.885,418.76,295.298L418.76,295.298z"/>
					</g>
				</g>
				<g>
					<path style="fill:#E6E6E6;" d="M410.859,267.943c-1.261,5.674-2.512,13.052-2.525,18.96c-0.013,5.908,1.79,11.673,5.147,15.632
						c3.357,3.959,10.135,5.693,12.867,3.428L410.859,267.943z"/>
				</g>
			</g>
		</g>
		<rect x="410.686" y="347.026" style="fill:#E0E0E0;" width="35.491" height="6.236"/>
		<polygon style="fill:#E0E0E0;" points="438.887,375.48 417.992,375.48 414.194,351.833 441.887,351.833 		"/>
	</g>
</g>
<g id="Background_simple" style="display:none;">
	<g style="display:inline;">
		<path style="fill:#407BFF;" d="M159.175,67.521c-26.176,3.455-51.418,10.812-73.805,22.352
			c-26.386,13.601-53.345,34.789-45.382,62.503c14.701,51.164,85.222,52.096,71.142,86.498
			c-15.949,38.967-5.253,84.677,66.314,97.387c135.933,24.143,300.255-117.121,254.103-194.744
			C402.815,93.193,298.166,49.174,159.175,67.521z"/>
		<path style="opacity:0.9;fill:#FFFFFF;" d="M159.175,67.521c-26.176,3.455-51.418,10.812-73.805,22.352
			c-26.386,13.601-53.345,34.789-45.382,62.503c14.701,51.164,85.222,52.096,71.142,86.498
			c-15.949,38.967-5.253,84.677,66.314,97.387c135.933,24.143,300.255-117.121,254.103-194.744
			C402.815,93.193,298.166,49.174,159.175,67.521z"/>
	</g>
</g>
<g id="Shadows">
	<g>
		<g>
			<path style="fill:#F5F5F5;" d="M197.206,438.173c0,6.888-26.949,12.471-60.193,12.471S76.82,445.06,76.82,438.173
				c0-6.888,26.949-12.472,60.193-12.472S197.206,431.285,197.206,438.173z"/>
		</g>
	</g>
	<g>
		<g>
			<ellipse style="fill:#F5F5F5;" cx="287.36" cy="469.159" rx="56.317" ry="12.472"/>
		</g>
	</g>
	<g>
		<g>
			<path style="fill:#F5F5F5;" d="M444.228,418.343c0,7.605-25.245,13.771-56.387,13.771s-56.387-6.165-56.387-13.771
				c0-7.606,25.245-13.771,56.387-13.771S444.228,410.737,444.228,418.343z"/>
		</g>
	</g>
</g>
<g id="Speech_Bubble">
	<g>
		<g>
			<g>
				<path style="fill:#407BFF;" d="M307.043,89.382c7.815-8.733,7.072-22.148-1.661-29.964c-8.733-7.816-22.148-7.072-29.964,1.661
					c-6.033,6.742-6.944,16.266-3.037,23.858l-2.285,5.95l6.733-0.092c0.087,0.08,0.162,0.168,0.25,0.248
					C285.812,98.859,299.227,98.116,307.043,89.382z"/>
			</g>
			<path style="fill:none;stroke:#407BFF;stroke-width:0.5;stroke-linecap:round;stroke-linejoin:round;stroke-miterlimit:10;" d="
				M303.221,54.134c6.171,3.085,10.58,9.448,11.301,16.309"/>
			<path style="fill:none;stroke:#407BFF;stroke-width:0.5;stroke-linecap:round;stroke-linejoin:round;stroke-miterlimit:10;" d="
				M314.741,73.602c0.187,1.035,0.158,2.11-0.086,3.133"/>
		</g>
		<g>
			<polygon style="fill:#FFFFFF;" points="290.811,84.267 281.085,77.025 283.613,73.631 290.134,78.487 299.095,67.797 
				302.338,70.515 			"/>
		</g>
	</g>
</g>
<g id="Character_3">
	<g>
		<g>
			<path style="fill:#BF5E60;" d="M253.135,132.075c0,0,21.021,27.024,27.46,31.129c6.439,4.105,27.839,18.736,27.839,18.736
				l7.004-14.037l-33.613-17.902l-21.521-22.037L253.135,132.075z"/>
			<g>
				<path style="fill:#BF5E60;" d="M253.135,132.075c0,0-2.291-1.876-2.606-5.604c-0.315-3.728,1.892-20.146,3.469-19.978
					c1.577,0.168,1.156,1.219,1.577,6.264c0.42,5.045,1.682,10.462,1.682,10.462l3.048,4.744L253.135,132.075z"/>
				<path style="fill:none;stroke:#A74145;stroke-width:0.5;stroke-miterlimit:10;" d="M252.515,129.089
					c-1.458-2.427,0.129-6.631-0.236-9.439c-0.104-0.796-0.203-1.633,0.093-2.38c0.296-0.747,1.131-1.345,1.892-1.088
					c0.739,0.249,1.039,1.113,1.241,1.867c0.508,1.9,1.017,3.8,1.525,5.7"/>
			</g>
		</g>
		<g>
			<polygon style="fill:#BF5E60;" points="347.67,390.565 352.922,402.726 362.693,400.709 359.289,386.906 			"/>
			<g>
				<g>
					<path style="fill:#263238;" d="M350.231,401.384c-0.18-0.489,0.125-1.022,0.616-1.16l2.904-0.817
						c0.728-0.224,1.903,0.886,2.519,1.352c2.653,2.013,3.746,0.607,5.015-2.444c1.236-0.548,2.045,0.848,2.274,1.219l5.158,8.181
						c0.439,0.681,0.255,1.587-0.41,2.026c-0.118,0.078-0.247,0.138-0.383,0.177c-3.908,1.203-5.757,1.773-10.621,3.27l-14.875,4.58
						c-4.055,1.249-6.181-2.659-4.629-3.559c6.989-4.005,11.613-7.896,13.247-10.839C351.28,402.977,350.56,402.281,350.231,401.384
						z"/>
					
						<path style="fill:none;stroke:#FFFFFF;stroke-width:0.5;stroke-linecap:round;stroke-linejoin:round;stroke-miterlimit:10;" d="
						M349.737,404.584c1.156-0.187,2.392,0.172,3.286,0.953"/>
					
						<path style="fill:none;stroke:#FFFFFF;stroke-width:0.5;stroke-linecap:round;stroke-linejoin:round;stroke-miterlimit:10;" d="
						M348.01,406.508c1.156-0.187,2.393,0.172,3.287,0.953"/>
					
						<path style="fill:none;stroke:#FFFFFF;stroke-width:0.5;stroke-linecap:round;stroke-linejoin:round;stroke-miterlimit:10;" d="
						M345.795,408.599c1.156-0.187,2.393,0.172,3.286,0.953"/>
				</g>
			</g>
		</g>
		<g>
			<polygon style="fill:#BF5E60;" points="414.968,364.186 425.64,371.837 433.043,365.063 423.097,355.018 			"/>
			<g>
				<g>
					<path style="fill:#263238;" d="M422.541,372.177c-0.402-0.324-0.417-0.944-0.071-1.324l2.043-2.247
						c0.502-0.58,2.066-0.253,2.825-0.179c3.277,0.317,3.484-1.473,2.998-4.769c0.767-1.128,2.166-0.36,2.55-0.163l8.556,4.282
						c0.72,0.351,1.029,1.228,0.689,1.958c-0.06,0.13-0.139,0.25-0.234,0.356c-2.695,3.113-3.97,4.587-7.324,8.462l-10.258,11.852
						c-2.796,3.231-6.596,1.006-5.743-0.593c3.871-7.16,5.797-12.964,5.676-16.361C424.245,372.987,423.279,372.773,422.541,372.177
						z"/>
					
						<path style="fill:none;stroke:#FFFFFF;stroke-width:0.5;stroke-linecap:round;stroke-linejoin:round;stroke-miterlimit:10;" d="
						M423.892,375.128c0.884-0.776,2.115-1.126,3.272-0.93"/>
					
						<path style="fill:none;stroke:#FFFFFF;stroke-width:0.5;stroke-linecap:round;stroke-linejoin:round;stroke-miterlimit:10;" d="
						M423.413,377.699c0.884-0.776,2.115-1.126,3.272-0.93"/>
					
						<path style="fill:none;stroke:#FFFFFF;stroke-width:0.5;stroke-linecap:round;stroke-linejoin:round;stroke-miterlimit:10;" d="
						M422.608,380.675c0.884-0.776,2.115-1.126,3.272-0.931"/>
				</g>
			</g>
		</g>
		<g>
			<path style="fill:#263238;" d="M360.214,387.06l-14.419,5.565l-20.645-55.128c-0.725-1.935-1.122-3.974-1.176-6.039
				c-0.45-17.209-2.426-99.337-2.426-99.337c27.352-24.874,33.495,18.566,33.315,19.161c-1.804,5.713-6.96,81.513-6.96,81.513
				S360.527,373.237,360.214,387.06z"/>
			<path style="fill:#263238;" d="M321.352,231.995l0.355,0.59c5.29,7.159,15.315,14.782,20.553,21.322l1.823,4.125
				c0,0,38.143-29.569,13.351-41.753c-1.03-0.507-8.619-4.564-8.619-4.564C342.247,210.103,321.352,231.995,321.352,231.995z"/>
			<path style="fill:#263238;" d="M378.348,258.129c2.076,12.916,8.525,46.276,12.178,58.827c0,0,11.238,6.431,17.593,13.626
				l20.282,28.555l-9.049,8.123l-36.99-27.058c-8.363-6.297-11.751-10.963-15.032-17.105c-8.027-14.997-11.989-34.098-16.78-49.192
				c-2.218-7-10.742-29.547-10.015-36.797c0.969-9.813,1.316-25.681,13.238-20.285C365.179,220.174,371.942,222.305,378.348,258.129
				z"/>
			<polygon style="opacity:0.2;enable-background:new    ;" points="349.982,277.288 340.601,242.637 329.904,239.069 
				338.254,246.853 			"/>
		</g>
		<g>
			<path style="fill:#407BFF;" d="M357.09,210.221c-2.972-3.406-4.913-7.586-5.6-12.054c-1.048-6.812-2.479-16.333-2.318-17.079
				l0.466-18.37c-4.06-4.06-19.133-4.102-19.133-4.102l-10.111,2.578c0,0-3.755,1.653-6.902,3.414
				c-4.201,2.352-6.41,2.475-6.988,5.178c0,0-0.826,8.855-1.052,17.831c-0.081,3.203,14.786,32.642,14.975,38.187l0.004,9.027
				c21.55,10.855,44.188-15.982,44.188-15.982L357.09,210.221z"/>
			<path style="opacity:0.3;" d="M350.003,188.239c0,0-9.447-8.53-8.968-12.522l8.033,4.316l0.538,5.405L350.003,188.239z"/>
		</g>
		<g>
			<path style="fill:#BF5E60;" d="M356.929,170.735c0.219,0.324,13.9,15.724,19.398,21.554c1.179,1.25,2.091,2.724,2.685,4.337
				l11.28,31.524l-7.065,2.113l-16.215-30.491l-20.38-17.242L356.929,170.735z"/>
			<g>
				<g>
					<g>
						<g>
							<g>
								<path style="fill:#BF5E60;" d="M382.961,227.734c0,0-1.887,2.156-1.703,4.518c0.185,2.362-0.296,4.297-0.038,6.044
									c0.259,1.747,1.535-0.266,1.998-1.474c0.462-1.208,0.999-2.572,1.85-2.078c0.851,0.494,5.087,7.823,6.345,8.373
									c1.258,0.551,0.944-0.849,0.944-0.849s1.077,1.752,1.887,1.515c0.21-0.062,0.6-0.546,0.234-1.422
									c-0.822-1.969-2.761-6.014-2.761-6.014c0.107,0.234,2.856,5.055,3.362,5.724c0.661,0.873,1.419,0.948,1.913,0.548
									c0.703-0.569-2.502-6.663-2.457-7.014c0,0,1.728,3.57,2.893,3.628c1.166,0.058,0.201-2.248-1.036-4.12
									c-1.134-1.716-2.91-5.38-4.232-7.012c-1.629-2.012-3.175-2.997-5.525-2.386
									C384.285,226.326,382.961,227.734,382.961,227.734z"/>
							</g>
						</g>
					</g>
				</g>
			</g>
			<path style="fill:#407BFF;" d="M347.044,161.334c4.582,0.294,12.9,11.751,12.9,11.751l-10.77,12.172
				c0,0-10.103-8.819-10.276-14.721C338.765,165.548,341.224,160.951,347.044,161.334z"/>
		</g>
		<path style="fill:#407BFF;" d="M314.368,164.552c0,0-15.981-5.927-15.72-5.743c0.261,0.184-6.434,15.102-6.434,15.102
			l15.588,10.525L314.368,164.552z"/>
		<g>
			<g>
				<path style="fill:#263238;" d="M362.715,147.581c4.901-2.646,7.607-8.806,6.24-14.206c-2.851,1.261-5.732,2.532-8.791,3.136
					c-3.059,0.604-6.355,0.492-9.135-0.921c-2.093-1.064-3.762-2.785-5.46-4.407c-1.698-1.622-3.537-3.215-5.777-3.917
					c-2.241-0.701-4.987-0.291-6.434,1.559l-3.136,4.953c2.052-0.471,4.205,0.762,5.388,2.503c1.183,1.741,1.579,3.891,1.808,5.983
					c0.229,2.092,0.327,4.228,1.016,6.217c0.882,2.545,2.691,4.689,4.799,6.365c4.68,3.72,11.079,5.274,16.887,3.856
					c5.808-1.417,10.847-5.862,12.736-11.534C369.53,147.863,366.087,148.003,362.715,147.581z"/>
			</g>
			<g>
				<g>
					<path style="fill:#263238;" d="M316.178,124.345c0,0-7.516,13.545-7.872,17.758c-2.877,2.45-4.922-2.518-4.814-9.174
						c0.088-5.449,2.93-11.329,7.639-13.446C317.745,116.508,316.178,124.345,316.178,124.345z"/>
					<g>
						<g>
							<path style="fill:#BF5E60;" d="M315.828,170.735c0,0-2.024-6.243-0.176-7.278c1.259-1.257,2.898-2.724,2.659-4.554
								c-0.166-1.407-0.62-2.869-1.161-4.293l1.878-2.042l9.77-9.17c-0.466,6.343-3.135,11.591,1.705,15.219"/>
							<path style="opacity:0.2;" d="M318.368,159.447c2.648-1.445,5.589-4.011,5.359-7.073c-0.105-1.29-0.338-2.516-0.618-3.307
								l-5.518,6.78C317.983,156.986,318.114,157.735,318.368,159.447z"/>
							<path style="fill:#BF5E60;" d="M331.838,133.289c-1.238,9.652-1.558,13.753-6.74,18.649
								c-7.794,7.366-19.266,4.377-20.908-5.295c-1.479-8.705,0.795-23.027,10.45-26.752
								C324.152,116.222,333.076,123.637,331.838,133.289z"/>
							<path style="fill:#263238;" d="M318.704,136.691c-0.008,0.909-0.529,1.68-1.166,1.723c-0.636,0.043-1.145-0.658-1.137-1.566
								c0.008-0.909,0.53-1.68,1.165-1.724C318.202,135.081,318.711,135.783,318.704,136.691z"/>
							<path style="fill:#263238;" d="M309.489,135.985c0.043,0.879-0.434,1.658-1.064,1.739c-0.63,0.081-1.176-0.567-1.219-1.446
								c-0.043-0.879,0.433-1.658,1.064-1.739C308.9,134.458,309.446,135.105,309.489,135.985z"/>
							<path style="fill:#263238;" d="M321.281,133.572c-0.124,0.008-0.247-0.034-0.339-0.126c-1.428-1.45-3.129-1.042-3.149-1.037
								c-0.252,0.061-0.497-0.092-0.543-0.348c-0.044-0.256,0.126-0.515,0.381-0.58c0.089-0.022,2.224-0.535,3.996,1.265
								c0.177,0.179,0.166,0.482-0.023,0.676C321.514,133.513,321.397,133.565,321.281,133.572z"/>
							<path style="fill:#263238;" d="M306.273,131.59c-0.112-0.037-0.208-0.114-0.261-0.223c-0.111-0.226-0.002-0.505,0.241-0.622
								c2.444-1.179,4.349-0.157,4.429-0.111c0.226,0.125,0.293,0.406,0.149,0.628c-0.143,0.222-0.443,0.3-0.669,0.177
								c-0.074-0.041-1.564-0.813-3.507,0.125C306.529,131.623,306.391,131.629,306.273,131.59z"/>
							<path style="fill:#263238;" d="M307.07,122.766c2.049-4.259,10.395-8.216,19.992-4.104
								c14.315,4.848,7.452,28.066,3.161,23.474c-1.167-1.249-2.151-2.487-2.979-3.679c-4.98-7.163-11.935-12.722-20.143-15.68
								L307.07,122.766z"/>
							<path style="fill:#BF5E60;" d="M334.482,141.288c-1.216,1.945-3.12,3.124-4.84,3.49c-2.587,0.55-3.761-3.62-2.793-6.156
								c0.872-2.283,3.446-3.722,5.922-3.128C335.211,136.08,335.872,139.064,334.482,141.288z"/>
							<path style="fill:#A74145;" d="M312.246,135.233c0,0-1.647,3.57-3.438,5.768c-0.313,0.384-0.149,0.967,0.309,1.155
								c1.18,0.483,2.594,0.136,2.594,0.136L312.246,135.233z"/>
						</g>
						<path style="fill:#263238;" d="M317.759,135.093l-2.246-0.42C315.513,134.673,316.806,136.273,317.759,135.093z"/>
						<path style="fill:#263238;" d="M308.595,134.55l-2.267-0.286C307.432,135.475,308.311,134.948,308.595,134.55z"/>
					</g>
					
						<path style="opacity:0.2;fill:none;stroke:#000000;stroke-width:0.5;stroke-linecap:round;stroke-linejoin:round;stroke-miterlimit:10;" d="
						M330.921,137.905c0.821-0.315,1.673,0.228,1.943,0.906c0.326,0.821-0.125,2.727-2.64,3.326"/>
				</g>
			</g>
			<path style="fill:#263238;" d="M310.821,145.456c0.727,1.068,1.618,3.149,1.618,3.149c0.203-0.047,0.406-0.093,0.606-0.151
				c2.738-0.703,3.776-1.934,4.096-3.085c0.173-0.63,0.123-1.243,0.019-1.725c-0.114-0.56-0.323-0.933-0.323-0.933
				c-1.229,1.24-3.731,2.091-5.086,2.491C311.185,145.374,310.821,145.456,310.821,145.456z"/>
			<path style="fill:#FFFFFF;" d="M311.751,145.202l0.501,0.916c2.577-0.668,4.302-1.485,4.909-2.474
				c-0.114-0.56-0.323-0.933-0.323-0.933C315.608,143.951,313.106,144.802,311.751,145.202z"/>
			<path style="fill:#FB504E;" d="M313.045,148.454c2.738-0.703,3.776-1.934,4.096-3.085c-0.924,0.275-2.007,0.71-2.885,1.383
				C313.582,147.264,313.233,147.876,313.045,148.454z"/>
		</g>
	</g>
</g>
<g id="Character_1">
	<g>
		<path style="fill:#FDAC6D;" d="M132.977,177.422c0,0-14.74,23.338-17.481,35.138c-1.487,6.402,6.84,35.808,6.84,35.808
			l8.385-1.163c0,0-4.418-29.995-2.842-32.89c4.742-8.712,19.473-27.51,19.246-28.074
			C146.896,185.679,132.977,177.422,132.977,177.422z"/>
		<path style="fill:#FDAC6D;" d="M122.64,256.921c0.937,2.179,2.228,5.005,3.344,5.279c1.116,0.273,1.431-0.613,2.141-0.622
			c0.71-0.009,1.614,0.801,2.865-0.681c0,0,2.524,1.013,3.271-0.779c1.773-0.172,2.255-1.225,1.938-3.119
			c-0.098-0.451-1.189-2.955-1.242-3.423c0.172,0.096,1.837,2.79,2.083,2.868c2.084,0.664,3.127,0.361,3.147-0.618
			c0.01-0.505-0.298-0.963-0.74-1.206c-1.083-0.595-1.463-4.975-2.729-5.719c-1.062-0.624-4.724-2.493-6.241-2.884
			c-1.517-0.391-7.698,1.304-7.698,1.304S121.703,254.742,122.64,256.921z"/>
	</g>
	<g>
		<path style="fill:#FDAC6D;" d="M184.337,163.403c0,0,21.419-5.812,26.995-9.824c5.576-4.012,15.539-31.351,15.539-31.351
			l7.404,0.12c0,0-5.598,31.347-10.65,37.921c-5.052,6.574-30.458,18.725-30.458,18.725L184.337,163.403z"/>
		<g>
			<g>
				<g>
					<g>
						<g>
							<g>
								<g>
									<path style="fill:#FDAC6D;" d="M227.534,123.281c0,0-2.738-2.004-3.134-4.781c-0.396-2.777-1.452-4.889-1.604-6.974
										c-0.152-2.085,1.843-0.09,2.689,1.187c0.846,1.276,1.819,2.714,2.675,1.924c0.856-0.791,3.858-10.353,5.169-11.314
										c1.311-0.962,1.309,0.737,1.309,0.737s0.792-2.303,1.789-2.238c0.259,0.017,0.834,0.477,0.638,1.583
										c-0.442,2.488-1.637,7.661-1.637,7.661c0.063-0.298,1.995-6.579,2.407-7.482c0.539-1.18,1.395-1.462,2.068-1.127
										c0.959,0.476-1.171,8.345-1.029,8.739c0,0,1.075-4.571,2.407-4.939c1.332-0.368,0.812,2.546-0.134,5.029
										c-0.868,2.276-1.973,6.968-3.08,9.196c-1.363,2.745-2.895,4.283-5.768,4.183
										C229.427,124.565,227.534,123.281,227.534,123.281z"/>
								</g>
							</g>
						</g>
					</g>
				</g>
			</g>
		</g>
	</g>
	<g>
		<polygon style="fill:#FDAC6D;" points="174.396,424.122 184.072,425.638 192.224,405.144 179.523,401.085 		"/>
		<path style="fill:#263238;" d="M185.265,423.988l-3.059-0.884c-0.692-0.2-1.434-0.035-2.004,0.405
			c-2.46,1.899-3.523,0.605-4.786-2.214c-1.179-0.495-1.912,0.81-2.12,1.157l-4.691,7.657c-0.4,0.637-0.207,1.478,0.43,1.877
			c0.113,0.071,0.236,0.125,0.366,0.16c3.714,1.074,5.472,1.582,10.095,2.918l14.139,4.087c3.854,1.114,5.776-2.539,4.292-3.358
			c-6.683-3.641-11.131-7.204-12.738-9.918C184.885,425.393,185.384,425.243,185.265,423.988z"/>
		<path style="fill:#407BFF;" d="M191.219,428.272c0.389-0.138,0.689-0.453,0.808-0.848c0.089-0.205,0.052-0.443-0.094-0.611
			c-0.762-0.956-5.103-0.274-5.593-0.189c-0.053,0.003-0.101,0.03-0.132,0.073c-0.057,0.079-0.04,0.189,0.04,0.247
			c0.876,0.494,1.8,0.896,2.759,1.198C189.711,428.419,190.486,428.465,191.219,428.272z M191.61,427.032
			c0.064,0.071,0.077,0.174,0.034,0.259c-0.099,0.282-0.314,0.507-0.59,0.619c-1.056,0.398-3.072-0.488-4.14-1.024
			C188.703,426.646,191.187,426.51,191.61,427.032z"/>
		<path style="fill:#407BFF;" d="M186.366,427.02c1.287-0.147,4.239-1.339,4.397-2.375c0.041-0.215-0.037-0.508-0.536-0.728
			c-2.028-0.846-4.014,2.659-4.061,2.819c-0.039,0.059-0.04,0.135-0.002,0.194c0.036,0.023,0.077,0.035,0.12,0.035L186.366,427.02z
			 M190.068,424.206c0.378,0.152,0.338,0.292,0.323,0.342c-0.066,0.641-2.267,1.703-3.706,2.001
			c0.514-0.804,1.917-2.778,3.245-2.394L190.068,424.206z"/>
		<path style="fill:none;stroke:#407BFF;stroke-width:0.5;stroke-linecap:round;stroke-linejoin:round;stroke-miterlimit:10;" d="
			M186.706,426.962c-1.095-0.161-2.254,0.186-3.081,0.922"/>
		<path style="fill:none;stroke:#407BFF;stroke-width:0.5;stroke-linecap:round;stroke-linejoin:round;stroke-miterlimit:10;" d="
			M188.194,428.943c-1.095-0.161-2.254,0.186-3.081,0.922"/>
		<path style="fill:none;stroke:#407BFF;stroke-width:0.5;stroke-linecap:round;stroke-linejoin:round;stroke-miterlimit:10;" d="
			M190.211,430.829c-1.095-0.161-2.254,0.186-3.081,0.922"/>
	</g>
	<g>
		<polygon style="fill:#FDAC6D;" points="87.719,390.758 96.809,394.405 109.35,376.262 97.883,369.458 		"/>
		<path style="fill:#263238;" d="M98.342,393.065l-2.782-1.548c-0.63-0.35-1.389-0.356-2.044-0.055
			c-2.824,1.299-3.569-0.2-4.168-3.231c-1.038-0.746-2.045,0.361-2.325,0.652l-6.289,6.409c-0.532,0.531-0.533,1.394-0.001,1.926
			c0.094,0.094,0.202,0.175,0.32,0.238c3.379,1.879,4.978,2.769,9.183,5.108l12.862,7.154c3.506,1.95,6.198-1.179,4.936-2.309
			c-5.696-5.048-9.232-9.517-10.189-12.523C97.657,394.349,98.176,394.315,98.342,393.065z"/>
		<path style="fill:#407BFF;" d="M103.183,398.575c0.41-0.048,0.773-0.287,0.978-0.646c0.132-0.18,0.15-0.419,0.046-0.617
			c-0.528-1.103-4.912-1.412-5.408-1.438c-0.052-0.009-0.105,0.007-0.145,0.041c-0.073,0.064-0.081,0.176-0.017,0.249
			c0.742,0.678,1.553,1.277,2.42,1.786C101.681,398.38,102.426,398.599,103.183,398.575z M103.842,397.455
			c0.047,0.083,0.037,0.187-0.025,0.26c-0.16,0.252-0.419,0.424-0.714,0.471c-1.119,0.151-2.885-1.165-3.805-1.926
			C101.095,396.427,103.547,396.851,103.842,397.455z"/>
		<path style="fill:#407BFF;" d="M98.734,396.267c1.287,0.145,4.431-0.354,4.818-1.328c0.088-0.201,0.078-0.503-0.359-0.83
			c-1.786-1.279-4.508,1.691-4.589,1.836c-0.051,0.048-0.069,0.122-0.045,0.189c0.029,0.03,0.067,0.051,0.109,0.061L98.734,396.267z
			 M102.973,394.355c0.334,0.233,0.263,0.361,0.238,0.406c-0.208,0.61-2.591,1.152-4.06,1.12c0.681-0.668,2.492-2.277,3.7-1.605
			L102.973,394.355z"/>
		<path style="fill:none;stroke:#407BFF;stroke-width:0.5;stroke-linecap:round;stroke-linejoin:round;stroke-miterlimit:10;" d="
			M99.079,396.287c-1.031-0.402-2.239-0.324-3.21,0.208"/>
		<path style="fill:none;stroke:#407BFF;stroke-width:0.5;stroke-linecap:round;stroke-linejoin:round;stroke-miterlimit:10;" d="
			M100.084,398.55c-1.031-0.402-2.239-0.324-3.21,0.208"/>
		<path style="fill:none;stroke:#407BFF;stroke-width:0.5;stroke-linecap:round;stroke-linejoin:round;stroke-miterlimit:10;" d="
			M101.627,400.841c-1.031-0.402-2.239-0.324-3.21,0.208"/>
	</g>
	<g>
		<path style="fill:#263238;" d="M88.317,381.101l16.554,10.376c0,0,37.947-51.275,45.022-64.429
			c7.075-13.154,21.427-47.484,21.427-47.484l0,0l-0.027,0.067c0.338,0.994,1.69,11.336,4.832,21.798
			c4.103,13.685,8.428,28.438,9.267,32.263c2.44,11.264-11.895,81.487-11.895,81.487l17.421,4.894c0,0,20.828-70.826,21.797-80.388
			c2.26-22.306-14.978-77.725-15.462-80.562c-0.626-3.624-1.327-14.612-1.327-14.612l-45.599-11.952c0,0-3.312,6.25-5.537,11.982
			c-8.335,21.511-14.985,60.743-17.355,68.828C115.086,328.712,88.317,381.101,88.317,381.101z"/>
		<path style="opacity:0.2;enable-background:new    ;" d="M174.183,274.365l-2.891,5.266c0.098,1.21,3.254,18.076,4.715,21.075
			C180.645,292.359,180.1,281.858,174.183,274.365z"/>
	</g>
	<g>
		<path style="fill:#407BFF;" d="M179.036,181.095c6.739,4.751,31.257-3.032,31.257-3.032l-3.369-21.665
			c0,0-10.03,2.37-20.553,5.458C179.216,163.922,171.635,175.928,179.036,181.095z"/>
		<path style="fill:#407BFF;" d="M141.152,164.244c1.692,9.648-0.393,19.372-0.171,29.164c0.191,6.851,0.19,13.617-0.057,19.524
			c-0.55,13.814-2.488,31.737-2.41,35.331c17.721-6.137,54.092,20.875,67.52,5.666c-12.249-43.751-15.391-93.299-15.391-93.299
			c-5.015,0-7.856,1.793-11.579,1.348c-0.786-0.09-1.584-0.169-2.404-0.236c-6.659-0.301-13.331-0.218-19.98,0.247
			c-1.258,0.079-2.538,0.191-3.785,0.314C146.517,162.922,141.152,164.244,141.152,164.244z"/>
		<path style="opacity:0.2;enable-background:new    ;" d="M148.867,184.942c-0.609,7.24-3.27,14.155-7.671,19.936
			c0-1.337,0-2.695-0.067-4.066c-0.146-5.144-0.461-10.479-1.022-15.881L148.867,184.942z"/>
		<path style="fill:#407BFF;" d="M141.895,164.074c-8.356,1.19-25.132,29.761-25.132,29.761l21.699,12.119
			c0,0,7.391-15.213,12.793-24.816C157.13,170.681,152.003,162.636,141.895,164.074z"/>
		<path style="opacity:0.2;enable-background:new    ;" d="M192.676,182.115c0,0-2.179-8.979-2.048-10.285
			c0.129-1.282,6.735,9.497,6.735,9.497C195.889,181.678,192.676,182.115,192.676,182.115z"/>
	</g>
	<g>
		<g>
			<path style="fill:#263238;" d="M183.227,122.836l1.01,0.593c1.182,0.024,2.293,0.917,2.57,2.067
				c0.277,1.149-0.304,2.451-1.345,3.011c-0.157,0.084-0.338,0.171-0.393,0.34c-0.089,0.271,0.195,0.502,0.411,0.688
				c1.062,0.918,0.931,2.743-0.024,3.772c-0.955,1.029-2.473,1.361-3.872,1.25C181.217,130.607,183.567,126.787,183.227,122.836z"/>
		</g>
		<g>
			<path style="fill:#263238;" d="M153.156,133.951c-1.503,0.072-3.006-0.855-3.615-2.232c-0.168-0.381-0.273-0.803-0.204-1.213
				c0.187-1.111,1.462-1.62,2.547-1.927c-1.212-0.296-2.024-1.501-2.257-2.726c-0.106-0.561-0.115-1.15,0.067-1.691
				c0.306-0.91,1.121-1.577,2.011-1.936c0.891-0.359,1.862-0.454,2.818-0.546l5.508,17.474c-1.23,0.276-2.507,0.444-3.749,0.232
				c-1.243-0.212-2.455-0.844-3.148-1.897C152.44,136.437,152.374,134.94,153.156,133.951z"/>
		</g>
		<path style="fill:#FDAC6D;" d="M174.53,161.66c-2-2.845-1.257-6.892-0.766-8.286c0.245-0.78,0.543-1.543,0.893-2.282
			l-14.488-12.558c0.912,6.539,3.832,18.979-1.251,23.314c0,0,10.645,7.439,13.281,4.895C174.834,164.2,174.53,161.66,174.53,161.66
			z"/>
		<path style="opacity:0.2;enable-background:new    ;" d="M162.764,145.187c-0.868,7.631,6.78,11.328,10.646,12.546
			c-0.255-1.455-0.132-2.952,0.359-4.345L162.764,145.187z"/>
		<g>
			<g>
				<path style="fill:#FDAC6D;" d="M157.685,132.833c1.789,9.016,2.61,14.137,7.962,18.152c8.05,6.04,18.805,0.528,19.827-8.859
					c0.92-8.45-2.159-21.775-11.807-24.128C164.162,115.679,155.897,123.817,157.685,132.833z"/>
				<path style="fill:#263238;" d="M155.039,122.056c0.615-5.174,13.53-6.888,17.48-4.792c0.59,0.313-6.564,5.032-6.122,4.807
					l-3.442,1.674c-0.571-0.048-1.577,0.722-1.918,2.47c0,0,2.271,13.884-1.254,18.44c-3.473-1.128-4.402-6.628-5.871-9.784
					C151.723,130.167,148.917,123.227,155.039,122.056z"/>
				<path style="fill:#FDAC6D;" d="M155.003,140.886c1.06,2.244,3.093,3.79,5.069,4.447c2.972,0.989,3.617-2.111,2.97-4.941
					c-0.582-2.547-1.776-5.588-4.845-5.351C155.173,135.274,153.79,138.32,155.003,140.886z"/>
				<path style="fill:#263238;" d="M171.717,133.042c0.124,0.93,0.732,1.614,1.358,1.528c0.626-0.086,1.033-0.911,0.908-1.841
					c-0.124-0.93-0.732-1.614-1.358-1.528C172,131.287,171.593,132.111,171.717,133.042z"/>
				<path style="fill:#263238;" d="M180.841,132.746c0.124,0.93,0.732,1.614,1.358,1.528c0.626-0.087,1.033-0.911,0.909-1.841
					s-0.732-1.614-1.358-1.528C181.123,130.992,180.716,131.816,180.841,132.746z"/>
				<path style="fill:#ED8640;" d="M177.717,132.59c0,0,3.648,4.233,4.871,5.99c-1.176,1.341-3.544,1.096-3.544,1.096
					L177.717,132.59z"/>
				<path style="fill:#263238;" d="M168.501,129.654c0.152,0.039,0.322-0.001,0.441-0.119c1.422-1.402,3.059-1.112,3.075-1.109
					c0.245,0.046,0.485-0.109,0.535-0.346c0.05-0.237-0.108-0.467-0.352-0.514c-0.086-0.017-2.137-0.381-3.901,1.36
					c-0.176,0.174-0.175,0.451,0.002,0.619C168.36,129.6,168.428,129.636,168.501,129.654z"/>
				
					<path style="opacity:0.2;fill:none;stroke:#000000;stroke-width:0.5;stroke-linecap:round;stroke-linejoin:round;stroke-miterlimit:10;" d="
					M156.804,138.098c0.305-0.591,1.047-0.889,1.722-0.817c0.675,0.072,1.279,0.457,1.749,0.933
					c0.563,0.572,0.969,1.289,1.165,2.058"/>
				<path style="fill:#263238;" d="M184.459,128.255c0.081-0.028,0.155-0.079,0.21-0.151c0.15-0.195,0.112-0.471-0.086-0.617
					c-1.986-1.459-3.939-0.766-4.03-0.746c-0.234,0.085-0.356,0.338-0.272,0.566c0.083,0.228,0.339,0.344,0.572,0.263
					c0.08-0.032,1.592-0.547,3.185,0.624C184.163,128.285,184.322,128.303,184.459,128.255z"/>
			</g>
			<g>
				<path style="fill:#263238;" d="M152.008,117.93c0.476-2.188,3.234-2.97,5.417-2.778c-0.4-2.563,2.878-4.437,5.059-4.611
					c2.272-0.182,3.186,0.607,3.186,0.607c-0.171,0.055,0.537-1.352,1.01-1.932c1.745-2.14,4.784-3.067,7.392-2.255
					c2.609,0.812,4.635,3.316,4.929,6.091c1.244-1.548,3.766-1.774,5.259-0.471c1.493,1.302,1.676,3.889,0.382,5.393
					c1.673-0.085,3.257,1.461,3.253,3.176c-0.004,1.715-1.595,3.248-3.267,3.147c0.119,1.916,0.183,4.319,0.302,6.235l-3.42-6.714
					c-1.402-0.317-1.727-0.886-2.164-2.287c-0.785,1.908-2.356,1.935-4.374,2.083c-2.018,0.148-4.078-0.946-5.127-2.72
					c-0.826,1.994-2.636,3.638-4.745,3.823c-2.109,0.184-4.345-1.388-4.582-3.542c-1.032,1.976-3.576,2.96-5.63,2.177
					C152.833,122.569,151.532,120.119,152.008,117.93z"/>
			</g>
			<g>
				<path style="fill:#263238;" d="M178.699,142.763c-0.777,1.002-1.48,2.058-2.104,3.161c-0.208-0.076-0.423-0.149-0.628-0.235
					c-2.835-1.08-3.798-2.513-3.99-3.782c-0.083-0.622-0.019-1.255,0.187-1.848c0.108-0.337,0.263-0.657,0.459-0.951
					c1.162,1.472,3.719,2.68,5.117,3.268C178.354,142.6,178.699,142.763,178.699,142.763z"/>
				<path style="fill:#FFFFFF;" d="M177.774,142.358l-0.647,0.916c-2.661-1.021-4.398-2.089-4.93-3.233
					c0.108-0.337,0.263-0.657,0.459-0.951C173.825,140.576,176.376,141.771,177.774,142.358z"/>
				<path style="fill:#D7504D;" d="M176.001,145.672c-2.835-1.08-3.798-2.513-3.99-3.782c1.07,0.43,2.055,1.046,2.91,1.819
					C175.477,144.234,175.854,144.921,176.001,145.672z"/>
			</g>
		</g>
	</g>
</g>
<g id="Character_2">
	<g>
		<path style="fill:#FFBBB5;" d="M293.999,194.321c1.221,1.305,2.213,2.474,3.257,3.725c1.044,1.25,2.032,2.487,2.985,3.766
			c1.94,2.527,3.775,5.137,5.562,7.779c1.788,2.642,3.482,5.346,5.069,8.157l1.35,2.224c0.504,0.838,0.907,1.693,1.332,2.538
			c0.792,1.676,1.467,3.405,2.018,5.174c1.063,3.334,1.787,6.766,2.163,10.244c0.38,3.338,0.513,6.699,0.396,10.056
			c-0.082,3.275-0.362,6.543-0.838,9.785c-0.452,3.25-1.112,6.467-1.977,9.631l-8.236-1.37c0.01-2.8-0.033-5.862-0.197-8.774
			c-0.164-2.911-0.428-5.851-0.797-8.706c-0.614-5.466-1.985-10.82-4.074-15.908c-0.502-1.128-1.068-2.226-1.695-3.289
			c-0.321-0.501-0.618-1.024-0.952-1.482c-0.189-0.247-0.302-0.433-0.533-0.727l-0.681-0.893c-1.849-2.353-3.675-4.704-5.557-7.059
			c-1.882-2.355-3.742-4.708-5.619-6.961l-5.528-6.776L293.999,194.321z"/>
		<path style="fill:#263238;" d="M271.41,200.205c-1.797,6.413,17.471,19.343,17.471,19.343l16.517-12.578
			c-3.681-5.954-7.886-11.567-12.564-16.775C285.113,181.598,274.328,189.816,271.41,200.205z"/>
		<path style="opacity:0.2;fill:#FFFFFF;" d="M271.41,200.205c-1.797,6.413,17.471,19.343,17.471,19.343l16.517-12.578
			c-3.681-5.954-7.886-11.567-12.564-16.775C285.113,181.598,274.328,189.816,271.41,200.205z"/>
		<path style="opacity:0.2;enable-background:new    ;" d="M284.88,207.784c-2.761-1.717-3.397,1.813-3.211,6.357
			c3.808,3.126,7.202,5.407,7.202,5.407l2.103-1.604C289.622,213.717,287.652,209.502,284.88,207.784z"/>
		<g>
			<g>
				<g>
					<g>
						<g>
							<g>
								<g>
									<path style="fill:#FFBBB5;" d="M309.405,263.836c0,0-3.349,0.539-4.966,2.832c-1.617,2.292-3.518,3.693-4.602,5.48
										c-1.084,1.788,1.6,0.918,2.935,0.167c1.334-0.751,2.855-1.589,3.257-0.496c0.402,1.094-1.275,10.974-0.545,12.427
										c0.73,1.453,1.501-0.061,1.501-0.061s-0.343,2.411,0.575,2.807c0.238,0.103,0.96-0.045,1.288-1.119
										c0.739-2.416,2.028-7.567,2.028-7.567c-0.08,0.294-1.217,6.766-1.262,7.757c-0.057,1.296,0.577,1.936,1.329,1.945
										c1.071,0.013,2.754-7.964,3.061-8.25c0,0-1.123,4.559-0.105,5.493c1.018,0.934,1.882-1.898,2.169-4.539
										c0.263-2.421,1.413-7.103,1.442-9.59c0.036-3.065-0.629-5.131-3.232-6.35C311.675,263.553,309.405,263.836,309.405,263.836
										z"/>
								</g>
							</g>
						</g>
					</g>
				</g>
			</g>
		</g>
	</g>
	<path style="fill:#263238;" d="M228.874,292.245c0,0,20.878,1.834,44.174-1.116c23.297-2.95,23.536-6.618,23.536-6.618
		l-6.962-8.037c0,0-15.839-3.878-17.094-4.102C271.274,272.147,228.874,292.245,228.874,292.245z"/>
	<g>
		<polygon style="fill:#FFBBB5;" points="320.226,448.282 310.663,450.395 301.255,430.447 313.679,425.608 		"/>
		<path style="fill:#263238;" d="M309.37,448.823l2.998-1.072c0.678-0.243,1.429-0.124,2.025,0.28
			c2.573,1.743,3.553,0.386,4.64-2.507c1.146-0.567,1.958,0.69,2.188,1.024l5.157,7.351c0.438,0.611,0.298,1.462-0.313,1.9
			c-0.109,0.078-0.228,0.139-0.355,0.182c-3.641,1.302-5.363,1.918-9.894,3.539l-13.858,4.957c-3.778,1.351-5.922-2.176-4.492-3.085
			c6.444-4.049,10.663-7.881,12.098-10.69C309.836,450.202,309.329,450.083,309.37,448.823z"/>
		<path style="fill:#407BFF;" d="M305.893,453.199c0.938-0.361,1.836-0.819,2.679-1.367c0.076-0.062,0.086-0.173,0.024-0.249
			c-0.033-0.041-0.084-0.064-0.136-0.065c-0.494-0.055-4.869-0.466-5.571,0.536c-0.135,0.177-0.157,0.417-0.056,0.616
			c0.144,0.387,0.462,0.683,0.859,0.797C304.436,453.615,305.207,453.521,305.893,453.199z M307.905,451.818
			c-1.032,0.601-2.99,1.61-4.069,1.279c-0.283-0.095-0.511-0.307-0.628-0.581c-0.049-0.082-0.042-0.185,0.017-0.26
			C303.615,451.707,306.104,451.689,307.905,451.818z"/>
		<path style="fill:#407BFF;" d="M308.537,451.857c0.042-0.002,0.083-0.017,0.117-0.042c0.035-0.062,0.029-0.138-0.014-0.194
			c-0.056-0.157-2.257-3.531-4.228-2.561c-0.484,0.251-0.544,0.548-0.49,0.76c0.223,1.024,3.243,2.03,4.536,2.098L308.537,451.857z
			 M304.723,449.28c1.302-0.466,2.825,1.418,3.388,2.188c-1.454-0.208-3.717-1.132-3.823-1.768
			c-0.017-0.049-0.066-0.186,0.301-0.362L304.723,449.28z"/>
		<path style="fill:none;stroke:#407BFF;stroke-width:0.5;stroke-linecap:round;stroke-linejoin:round;stroke-miterlimit:10;" d="
			M308.116,451.881c1.083-0.228,2.261,0.046,3.133,0.729"/>
		<path style="fill:none;stroke:#407BFF;stroke-width:0.5;stroke-linecap:round;stroke-linejoin:round;stroke-miterlimit:10;" d="
			M306.754,453.949c1.083-0.228,2.262,0.046,3.133,0.729"/>
		<path style="fill:none;stroke:#407BFF;stroke-width:0.5;stroke-linecap:round;stroke-linejoin:round;stroke-miterlimit:10;" d="
			M304.858,455.958c1.083-0.228,2.262,0.046,3.132,0.729"/>
	</g>
	<g>
		<polygon style="fill:#FFBBB5;" points="262.323,462.045 252.53,462.163 247.389,440.715 260.539,438.513 		"/>
		<path style="fill:#263238;" d="M251.584,460.36l3.154-0.438c0.714-0.099,1.424,0.17,1.926,0.687
			c2.164,2.231,3.4,1.102,5.054-1.507c1.237-0.321,1.776,1.075,1.933,1.449l3.549,8.248c0.304,0.688-0.007,1.492-0.694,1.796
			c-0.122,0.054-0.252,0.09-0.385,0.106c-3.83,0.532-5.642,0.784-10.408,1.446l-14.578,2.025c-3.974,0.552-5.354-3.338-3.768-3.936
			c7.135-2.649,12.046-5.539,14.024-7.997C251.759,461.805,251.287,461.585,251.584,460.36z"/>
		<path style="fill:#407BFF;" d="M247.288,463.936c0.992-0.162,1.965-0.427,2.902-0.791c0.087-0.045,0.12-0.152,0.075-0.239
			c-0.024-0.047-0.069-0.08-0.12-0.091c-0.473-0.155-4.672-1.45-5.563-0.612c-0.169,0.146-0.239,0.376-0.18,0.592
			c0.062,0.408,0.313,0.763,0.678,0.955C245.777,464.045,246.551,464.11,247.288,463.936z M249.539,462.993
			c-1.133,0.378-3.255,0.966-4.244,0.422c-0.258-0.151-0.438-0.404-0.496-0.697c-0.031-0.09-0.003-0.19,0.07-0.251
			C245.362,462.01,247.802,462.5,249.539,462.993z"/>
		<path style="fill:#407BFF;" d="M250.15,463.16c0.042,0.006,0.085,0,0.123-0.017c0.046-0.053,0.056-0.129,0.026-0.192
			c-0.023-0.165-1.489-3.917-3.616-3.37c-0.525,0.146-0.644,0.425-0.635,0.644c0.009,1.048,2.761,2.649,4.013,2.979L250.15,463.16z
			 M246.942,459.86c1.369-0.19,2.477,1.965,2.87,2.833c-1.381-0.501-3.407-1.867-3.381-2.51c-0.007-0.052-0.027-0.196,0.369-0.293
			L246.942,459.86z"/>
		<path style="fill:none;stroke:#407BFF;stroke-width:0.5;stroke-linecap:round;stroke-linejoin:round;stroke-miterlimit:10;" d="
			M249.733,463.098c1.107-0.003,2.205,0.506,2.918,1.353"/>
		<path style="fill:none;stroke:#407BFF;stroke-width:0.5;stroke-linecap:round;stroke-linejoin:round;stroke-miterlimit:10;" d="
			M247.978,464.845c1.107-0.003,2.205,0.506,2.918,1.353"/>
		<path style="fill:none;stroke:#407BFF;stroke-width:0.5;stroke-linecap:round;stroke-linejoin:round;stroke-miterlimit:10;" d="
			M245.712,466.425c1.107-0.003,2.205,0.507,2.918,1.353"/>
	</g>
	<path style="fill:#FFBBB5;" d="M269.127,162.451c-1.022,6.636-1.811,18.763,2.983,22.967c-3.435,3.712-7.939,8.017-15.756,8.616
		c-7.818,0.599-6.669-4.871-4.719-7.766c7.28-2.058,6.863-7.492,5.369-12.569L269.127,162.451z"/>
	<path style="fill:#263238;" d="M249.146,154.835c-0.119,0.724-0.587,1.25-1.056,1.179c-0.469-0.071-0.759-0.717-0.651-1.442
		c0.108-0.725,0.587-1.238,1.055-1.167C248.963,153.475,249.253,154.121,249.146,154.835z"/>
	<path style="fill:#E97A75;" d="M248.849,155.527c-1.195,2.066-2.671,3.956-4.385,5.616c0.876,0.86,2.087,1.29,3.309,1.174
		L248.849,155.527z"/>
	<path style="fill:#263238;" d="M251.225,152.24c-0.129-0.058-0.22-0.177-0.241-0.317c-0.153-1.078-0.817-2.016-1.783-2.518
		c-0.218-0.093-0.32-0.345-0.227-0.564c0.093-0.218,0.345-0.32,0.564-0.227l0,0c1.227,0.625,2.078,1.803,2.287,3.165
		c0.036,0.232-0.122,0.449-0.353,0.487C251.389,152.285,251.302,152.276,251.225,152.24z"/>
	<path style="fill:#FFBBB5;" d="M273.784,156.793c-2.227,8.672-3.089,13.855-8.379,17.531c-7.967,5.495-18.021-0.599-18.433-9.756
		c-0.373-8.244,3.321-21.03,12.582-22.921c6.606-1.35,13.055,2.912,14.405,9.518C274.341,153.029,274.281,154.956,273.784,156.793z"
		/>
	<path style="fill:#263238;" d="M255.851,158.246c-2.361-3.045-1.07-9.25,0.678-12.156c-1.928,1.085-8.24,0.306-7.997-4.664
		c0.35-7.281,12.678-8.292,19.313-6.64c7.642,1.956,14.168,9.586,16.976,7.234c2.477,4.998-2.428,6.423-2.428,6.423
		s4.105,12.321-14.035,23.155c-2.38-0.471-4.825-0.504-7.216-0.099c-0.541-0.032-1.048-0.274-1.413-0.675
		C258.056,168.954,253.516,163.212,255.851,158.246z"/>
	<path style="fill:#263238;" d="M281.747,148.137c0,0,3.258,0.879,4.498-1.178C285.751,149.969,283.899,149.888,281.747,148.137z"/>
	<path style="fill:#FFBBB5;" d="M261.494,161.35c-1.217,1.894-3.136,3.228-5.336,3.707c-2.913,0.603-4.182-2.055-3.204-4.678
		c0.876-2.392,3.46-5.578,6.308-5.003C262.11,155.951,262.94,159.024,261.494,161.35z"/>
	<g>
		<path style="fill:#407BFF;" d="M255.703,266.552c0,0,10.488,74.197,16.379,99.902c6.446,28.245,29.652,76.693,29.652,76.693
			l17.284-5.561c0,0-14.708-38.84-19.912-66.577c-3.517-18.894-6.389-57.846-6.556-78.558c-0.132-16.359-5.776-26.743-5.776-26.743
			L255.703,266.552z"/>
		<path style="opacity:0.2;enable-background:new    ;" d="M265.479,300.24c0.736,20.503,1.148,22.929,1.042,38.761
			c-2.901-16.967-5.912-36.618-8.083-51.16L265.479,300.24z"/>
		<path style="fill:#407BFF;" d="M246.411,453.732l16.059-0.879c0,0-2.817-57.632-3.232-85.721
			c-0.131-8.545,0.82-20.562,2.259-33.474c1.807-16.277,2.766-22.782,5.149-43.347c1.695-14.664,3.291-24.136,3.291-24.136
			l-37.892-0.188c0,0,0.987,72.396,3.046,99.834C237.262,394.311,246.411,453.732,246.411,453.732z"/>
		<polygon style="fill:#407BFF;" points="245.502,454.754 263.679,454.185 263.506,448.313 245.197,448.716 		"/>
		<polygon style="opacity:0.3;enable-background:new    ;" points="245.502,454.754 263.679,454.185 263.506,448.313 
			245.197,448.716 		"/>
		<polygon style="fill:#407BFF;" points="301.421,444.232 319.689,437.578 317.698,432.113 298.829,437.574 		"/>
		<polygon style="opacity:0.3;enable-background:new    ;" points="301.421,444.232 319.689,437.578 317.698,432.113 
			298.829,437.574 		"/>
		<path style="opacity:0.2;enable-background:new    ;" d="M274.168,288.718l-8.689,11.522
			C265.479,300.24,272.417,298.388,274.168,288.718z"/>
	</g>
	<g>
		<path style="fill:#263238;" d="M289.402,191.432c-6.003,34.244,7.309,85.977,7.183,93.079c-11.782-16.975-53.19,7.362-67.71,7.734
			c6.887-60.357,10.816-105.001,10.816-105.001s3.048-0.798,7.215-1.499c1.306-0.22,2.723-0.422,4.195-0.599
			c0.804-0.101,1.641-0.178,2.478-0.256c6.83-0.314,13.673-0.241,20.494,0.22c1.29,0.072,2.613,0.146,3.886,0.318
			c1.273,0.172,2.336,0.265,3.431,0.405c1.686,0.229,3.247,0.473,4.573,0.694c2.293,0.389,3.836,2.564,3.447,4.857
			C289.407,191.401,289.405,191.417,289.402,191.432z"/>
		<path style="opacity:0.2;fill:#FFFFFF;" d="M289.402,191.432c-6.003,34.244,7.309,85.977,7.183,93.079
			c-11.782-16.975-53.19,7.362-67.71,7.734c6.887-60.357,10.816-105.001,10.816-105.001s3.048-0.798,7.215-1.499
			c1.306-0.22,2.723-0.422,4.195-0.599c0.804-0.101,1.641-0.178,2.478-0.256c6.83-0.314,13.673-0.241,20.494,0.22
			c1.29,0.072,2.613,0.146,3.886,0.318c1.273,0.172,2.336,0.265,3.431,0.405c1.686,0.229,3.247,0.473,4.573,0.694
			c2.293,0.389,3.836,2.564,3.447,4.857C289.407,191.401,289.405,191.417,289.402,191.432z"/>
		<path style="opacity:0.2;enable-background:new    ;" d="M238.479,202.59c-0.266,1.751-0.508,3.661-0.735,5.718
			c3.202-0.137,7.116-0.728,8.856-2.476C248.726,203.611,242.648,202.857,238.479,202.59z"/>
	</g>
	<g>
		<g>
			<g>
				<g>
					<g>
						<g>
							<g>
								<g>
									<path style="fill:#FFBBB5;" d="M235.853,130.755c0,0,3.23,1.038,5.71-0.273c2.48-1.311,4.809-1.698,6.586-2.8
										c1.776-1.102-1.01-1.544-2.541-1.479c-1.53,0.065-3.265,0.123-3.128-1.034c0.137-1.157,6.11-9.205,6.117-10.831
										c0.008-1.626-1.366-0.626-1.366-0.626s1.398-1.994,0.759-2.763c-0.166-0.2-0.876-0.395-1.655,0.414
										c-1.754,1.819-5.237,5.827-5.237,5.827c0.205-0.226,4.151-5.479,4.64-6.343c0.638-1.129,0.363-1.987-0.303-2.336
										c-0.949-0.497-6.064,5.851-6.467,5.967c0,0,3.067-3.556,2.583-4.85c-0.484-1.294-2.537,0.839-3.99,3.063
										c-1.332,2.039-4.479,5.691-5.631,7.895c-1.421,2.716-1.764,4.859,0.004,7.125
										C233.701,129.978,235.853,130.755,235.853,130.755z"/>
								</g>
							</g>
						</g>
					</g>
				</g>
			</g>
		</g>
	</g>
	<path style="fill:#FFBBB5;" d="M230.572,125.175c0,0-17.305,24.596-18.65,34.052c-1.345,9.456,20.001,36.946,20.001,36.946
		l14.891-7.191c0,0-20.655-24.055-20.5-30.075c0.155-6.02,12.846-30.3,12.846-30.3L230.572,125.175z"/>
	<path style="fill:#263238;" d="M237.818,202.532c-2.889-2.32-16.117-15.686-16.117-15.686l10.726-18.046
		c0,0,15.311,8.699,24.264,15.388C265.867,191.047,247.09,204.322,237.818,202.532z"/>
	<path style="opacity:0.2;fill:#FFFFFF;" d="M237.818,202.532c-2.889-2.32-16.117-15.686-16.117-15.686l10.726-18.046
		c0,0,15.311,8.699,24.264,15.388C265.867,191.047,247.09,204.322,237.818,202.532z"/>
</g>
</svg>
